<?xml version="1.0" standalone="no"?>
<!DOCTYPE svg PUBLIC "-//W3C//DTD SVG 20010904//EN"
 "http://www.w3.org/TR/2001/REC-SVG-20010904/DTD/svg10.dtd">
<svg version="1.0" xmlns="http://www.w3.org/2000/svg"
 width="900.000000pt" height="900.000000pt" viewBox="0 0 900.000000 900.000000"
 preserveAspectRatio="xMidYMid meet">
<metadata>
Created by potrace 1.14, written by Peter Selinger 2001-2017
</metadata>
<g transform="translate(0.000000,900.000000) scale(0.100000,-0.100000)"
fill="#000000" stroke="none">
<path d="M1910 6104 c-256 -256 -723 -722 -1037 -1037 -315 -314 -573 -574
-573 -577 0 -3 228 -233 506 -510 278 -278 522 -523 542 -544 21 -22 57 -58
80 -80 24 -23 248 -245 497 -493 l453 -453 2068 0 2069 0 1043 1040 1044 1039
-1044 1041 -1043 1040 -2070 -1 -2070 0 -465 -465z m4601 -1540 c0 -1094 -1
-2020 -1 -2059 l-1 -70 -1024 1030 -1025 1029 153 154 c83 84 505 509 937 943
432 435 823 829 870 877 47 48 86 87 88 86 1 -1 3 -896 3 -1990z m-3648 1502
c1612 -1621 1569 -1576 1555 -1594 -7 -9 -206 -210 -441 -447 -235 -236 -688
-692 -1007 -1013 -318 -320 -581 -582 -584 -582 -3 0 -6 925 -6 2055 0 1130 2
2055 5 2055 3 0 218 -213 478 -474z"/>
</g>
</svg>
