<?xml version="1.0" standalone="no"?>
<!DOCTYPE svg PUBLIC "-//W3C//DTD SVG 20010904//EN"
 "http://www.w3.org/TR/2001/REC-SVG-20010904/DTD/svg10.dtd">
<svg version="1.0" xmlns="http://www.w3.org/2000/svg"
 width="624.000000pt" height="527.000000pt" viewBox="0 0 624.000000 527.000000"
 preserveAspectRatio="xMidYMid meet">

<g transform="translate(0.000000,527.000000) scale(0.100000,-0.100000)"
fill="#000000" stroke="none">
<path d="M1580 5265 c0 -8 1522 -1520 1530 -1520 8 0 1530 1513 1530 1521 0 2
-688 4 -1530 4 -841 0 -1530 -2 -1530 -5z"/>
<path d="M771 4481 l-764 -757 764 -751 764 -752 3 755 c1 415 1 1093 0 1508
l-3 753 -764 -756z"/>
<path d="M4700 3720 l0 -1525 383 380 c210 209 554 551 765 760 210 209 381
382 380 385 -2 3 -346 347 -765 764 l-763 760 0 -1524z"/>
<path d="M2340 2955 l-765 -765 1535 0 1535 0 -765 765 c-421 421 -767 765
-770 765 -3 0 -349 -344 -770 -765z"/>
<path d="M2415 1537 c-127 -33 -225 -109 -277 -215 -30 -61 -33 -74 -33 -162
0 -82 4 -103 26 -151 51 -108 89 -138 459 -367 102 -62 196 -123 208 -135 43
-40 74 -104 79 -164 4 -50 1 -66 -24 -113 -52 -100 -161 -148 -308 -137 -94 7
-174 39 -234 93 -63 57 -103 126 -134 234 -20 70 -29 86 -46 88 l-21 3 2 -253
c3 -242 4 -253 22 -253 13 0 22 10 27 29 5 16 14 33 21 37 22 14 80 10 144
-10 223 -70 407 -68 534 6 266 156 280 497 26 677 -33 24 -117 74 -185 111
-166 90 -286 165 -342 214 -125 110 -111 275 31 355 50 28 63 31 145 31 82 0
97 -3 157 -33 36 -17 85 -50 108 -73 50 -49 103 -156 121 -244 10 -51 16 -65
31 -65 17 0 18 15 18 255 0 239 -1 255 -18 255 -11 0 -23 -13 -30 -34 -18 -50
-54 -59 -123 -34 -175 65 -285 80 -384 55z"/>
<path d="M5336 1533 c-272 -58 -479 -256 -560 -536 -62 -213 -36 -467 65 -644
49 -85 134 -179 212 -234 154 -108 401 -142 606 -84 130 38 258 136 349 269
45 64 50 76 37 86 -13 10 -19 8 -37 -16 -55 -75 -199 -205 -251 -229 -155 -71
-381 -54 -524 40 -158 104 -230 257 -240 515 -9 215 18 361 96 519 81 166 221
251 414 251 219 0 381 -128 472 -372 13 -34 23 -48 37 -48 16 0 18 6 13 48 -3
26 -10 117 -15 202 -15 230 -19 250 -40 250 -12 0 -21 -10 -25 -30 -8 -35 -61
-84 -84 -77 -9 3 -53 22 -98 42 -145 64 -283 80 -427 48z"/>
<path d="M400 1496 c0 -9 19 -16 59 -20 65 -7 118 -37 138 -76 18 -35 17
-1186 0 -1245 -16 -51 -59 -75 -139 -75 -51 0 -58 -2 -58 -20 0 -20 7 -20 315
-20 308 0 315 0 315 20 0 17 -7 20 -48 20 -69 0 -134 35 -149 80 -8 24 -12
125 -12 313 l-1 277 341 0 340 0 -3 -287 c-3 -256 -5 -292 -21 -321 -22 -41
-69 -62 -137 -62 -43 0 -50 -3 -50 -20 0 -20 7 -20 315 -20 308 0 315 0 315
20 0 18 -7 20 -56 20 -63 0 -113 19 -132 51 -24 38 -31 194 -31 649 0 458 6
575 30 625 19 39 67 65 134 72 37 4 55 10 55 19 0 12 -56 14 -315 14 -273 0
-315 -2 -315 -15 0 -10 10 -15 28 -15 49 0 127 -29 153 -56 l24 -26 3 -284 3
-284 -341 0 -341 0 3 273 c3 237 5 276 21 304 22 41 60 61 131 69 37 5 56 11
56 20 0 12 -56 14 -315 14 -260 0 -315 -2 -315 -14z"/>
<path d="M3230 1497 c0 -10 17 -16 58 -21 32 -4 72 -15 89 -25 58 -36 58 -38
58 -681 0 -570 -1 -586 -20 -620 -26 -44 -77 -70 -137 -70 -41 0 -48 -3 -48
-20 0 -20 7 -20 433 -20 458 1 537 7 632 49 113 50 196 141 229 250 21 72 20
136 -3 210 -37 118 -121 187 -290 237 -8 3 13 18 46 34 73 34 137 95 167 159
17 37 21 64 21 146 -1 88 -4 107 -28 157 -48 99 -151 169 -303 205 -99 23
-904 32 -904 10z m749 -68 c107 -24 200 -90 244 -174 32 -58 31 -202 0 -261
-33 -63 -97 -111 -178 -137 -59 -18 -93 -22 -215 -22 -80 0 -153 3 -162 7 -17
7 -18 30 -18 292 l0 285 43 9 c57 13 232 14 286 1z m61 -694 c78 -24 119 -47
163 -92 61 -61 80 -105 85 -205 4 -80 2 -93 -22 -142 -41 -84 -121 -140 -237
-166 -67 -15 -333 -10 -364 7 -19 11 -20 20 -17 311 l3 301 32 4 c69 11 302
-2 357 -18z"/>
</g>
</svg>
