<?xml version="1.0" standalone="no"?>
<!DOCTYPE svg PUBLIC "-//W3C//DTD SVG 20010904//EN"
 "http://www.w3.org/TR/2001/REC-SVG-20010904/DTD/svg10.dtd">
<svg version="1.0" xmlns="http://www.w3.org/2000/svg"
 width="512.000000pt" height="512.000000pt" viewBox="0 0 512.000000 512.000000"
 preserveAspectRatio="xMidYMid meet">
<metadata>
Created by potrace 1.14, written by Peter Selinger 2001-2017
</metadata>
<g transform="translate(0.000000,512.000000) scale(0.100000,-0.100000)"
fill="#000000" stroke="none">
<path d="M1298 5113 c6 -2 12 -9 12 -14 0 -6 -4 -8 -8 -5 -4 2 -8 -4 -8 -14 0
-17 2 -18 17 -4 16 14 18 14 24 -5 3 -12 3 -26 -1 -33 -4 -7 -4 -10 1 -6 4 4
16 -4 27 -17 11 -14 26 -25 35 -25 13 0 13 -3 3 -15 -17 -20 -6 -19 15 1 13
13 16 14 15 3 -4 -29 0 -40 13 -33 9 6 9 5 0 -8 -13 -15 -8 -28 11 -28 6 0 4
5 -4 10 -10 6 -11 10 -3 10 7 0 19 -16 27 -35 17 -40 26 -46 20 -12 l-5 22 10
-23 c6 -12 8 -30 5 -40 -5 -14 -4 -15 5 -2 7 10 11 11 11 3 0 -7 6 -13 14 -13
15 0 29 -27 21 -41 -3 -4 10 -15 30 -23 19 -8 35 -20 35 -26 0 -6 5 -8 12 -4
7 5 8 3 3 -5 -5 -9 -12 -7 -26 8 -11 12 -23 21 -26 21 -4 0 3 -10 15 -23 12
-13 19 -26 16 -30 -3 -3 3 -3 15 0 13 3 21 1 21 -6 0 -7 5 -9 12 -5 6 4 8 3 4
-4 -3 -6 5 -22 19 -36 14 -15 23 -31 20 -36 -3 -6 4 -10 17 -11 22 0 22 -1 3
-9 l-20 -9 20 -1 c11 -2 24 -2 29 -1 5 1 4 -4 -3 -13 -9 -11 -9 -16 0 -22 8
-4 9 -3 5 4 -4 7 -2 12 3 12 6 0 11 -9 11 -20 0 -12 7 -20 17 -20 15 0 14 -2
-2 -14 -18 -13 -18 -14 8 -9 20 4 27 2 25 -8 -2 -8 3 -13 10 -11 10 2 10 -2 1
-20 -6 -13 -8 -20 -4 -16 5 4 15 2 24 -5 14 -11 14 -10 2 6 -12 15 -12 17 3
11 9 -3 16 -15 16 -25 0 -10 6 -18 13 -16 7 1 11 -6 9 -17 -3 -13 1 -17 11
-13 10 4 13 0 10 -12 -2 -10 3 -24 13 -32 16 -13 16 -12 4 11 -12 23 -12 24 4
11 10 -9 16 -24 14 -36 -3 -16 1 -21 16 -23 17 -1 18 1 6 8 -9 6 -10 10 -3 10
16 0 26 -17 13 -25 -6 -4 -5 -13 2 -25 11 -17 14 -18 28 -5 18 16 19 13 21
-38 0 -9 4 -15 10 -12 8 6 13 -9 10 -29 -1 -5 6 -3 15 5 10 8 15 9 11 2 -4 -6
-2 -13 3 -15 6 -2 12 -13 13 -25 0 -12 5 -19 9 -17 5 3 6 10 3 15 -3 5 1 6 10
2 9 -3 12 -9 7 -12 -10 -6 -12 -40 -3 -39 20 2 31 -3 26 -12 -5 -9 7 -14 27
-11 4 0 5 -9 3 -21 -4 -17 -2 -19 7 -10 15 15 28 15 28 1 0 -5 -4 -8 -9 -5 -5
3 -11 -1 -14 -9 -4 -9 -1 -12 9 -8 7 3 14 0 14 -7 0 -7 9 -9 23 -6 12 3 16 3
10 0 -7 -3 -13 -12 -13 -20 0 -9 5 -12 10 -9 6 3 10 -1 10 -10 0 -9 4 -13 10
-10 6 4 7 -1 3 -11 -5 -14 -3 -16 11 -11 10 4 15 3 11 -3 -3 -6 1 -13 10 -16
13 -5 13 -9 3 -22 -12 -14 -10 -14 12 -2 22 12 24 12 12 -2 -10 -12 -10 -17 1
-27 8 -6 16 -8 19 -5 3 3 8 -7 12 -21 4 -16 13 -25 26 -25 10 0 22 -5 26 -12
5 -8 2 -9 -10 -5 -14 5 -15 3 -6 -13 5 -10 15 -22 22 -26 7 -4 8 -3 4 4 -4 7
-2 12 3 12 6 0 11 -5 11 -11 0 -5 4 -7 10 -4 6 3 7 -1 4 -9 -4 -11 0 -16 11
-16 15 0 15 -3 5 -15 -7 -9 -10 -18 -6 -22 3 -3 6 -1 6 5 0 7 8 5 20 -5 11
-10 20 -23 20 -30 0 -6 4 -15 10 -18 6 -3 7 1 4 9 -3 9 -2 16 3 16 5 0 10 -12
11 -27 1 -16 7 -30 13 -32 6 -2 1 -10 -10 -18 -18 -12 -19 -18 -10 -36 9 -18
9 -20 -2 -10 -10 10 -17 9 -36 -9 -19 -17 -21 -24 -10 -37 9 -12 9 -13 0 -7
-7 4 -13 2 -13 -3 0 -6 -6 -10 -12 -9 -7 2 -14 -7 -16 -19 -2 -13 -8 -23 -14
-23 -6 0 -5 -7 3 -17 13 -15 12 -15 -10 -4 -14 8 -21 9 -17 2 4 -6 -1 -22 -10
-36 -13 -20 -19 -23 -30 -14 -12 10 -13 8 -8 -6 6 -14 4 -16 -7 -10 -11 7 -11
5 1 -10 8 -10 10 -16 4 -12 -6 3 -17 -5 -24 -18 -10 -18 -17 -22 -26 -14 -8 7
-14 6 -20 -2 -4 -7 -3 -9 3 -6 6 4 13 0 17 -8 3 -8 2 -14 -2 -14 -23 4 -42 -2
-37 -11 4 -6 11 -7 17 -4 7 4 8 2 4 -4 -4 -6 -14 -8 -23 -5 -11 4 -14 3 -9 -5
4 -7 2 -12 -5 -12 -8 0 -7 -5 2 -17 13 -15 12 -15 -8 -4 -20 10 -22 9 -16 -5
4 -12 3 -15 -5 -10 -7 4 -12 2 -12 -4 0 -6 -4 -8 -10 -5 -6 3 -7 -1 -4 -9 6
-16 -10 -23 -19 -8 -2 4 -2 2 -1 -5 4 -15 -20 -35 -31 -25 -4 4 -2 -4 5 -18
13 -24 12 -24 -5 -10 -17 14 -18 14 -5 -10 12 -23 12 -24 -4 -11 -9 8 -16 10
-15 5 3 -19 -3 -49 -8 -36 -4 10 -9 9 -24 -4 -15 -14 -17 -20 -6 -32 11 -13 9
-14 -13 -2 -23 12 -24 12 -11 -3 11 -15 11 -17 -2 -17 -8 0 -18 -7 -21 -16 -3
-8 -11 -12 -17 -8 -7 4 -7 -1 1 -16 8 -15 8 -20 1 -16 -6 4 -14 0 -17 -8 -3
-9 -10 -16 -16 -16 -5 0 -6 5 -2 12 4 7 3 8 -5 4 -8 -6 -9 -12 -2 -20 12 -14
-4 -36 -26 -36 -12 0 -17 -12 -14 -36 1 -7 -6 -15 -15 -18 -14 -5 -15 -4 -4 9
7 8 8 15 2 15 -5 0 -17 -12 -27 -26 -9 -15 -11 -23 -4 -19 8 5 10 4 5 -3 -4
-7 -15 -12 -24 -12 -15 0 -15 -2 -2 -11 12 -9 11 -10 -7 -6 -19 4 -21 2 -13
-13 7 -13 6 -21 -2 -26 -7 -4 -8 -3 -4 4 4 7 1 12 -9 12 -12 0 -15 -5 -11 -16
4 -11 2 -15 -8 -11 -10 4 -13 -1 -12 -17 2 -19 -1 -22 -21 -20 -15 1 -21 -2
-16 -9 14 -23 10 -34 -11 -32 -13 2 -23 -3 -23 -10 0 -7 7 -11 16 -8 11 3 10
0 -3 -7 -14 -10 -20 -9 -27 1 -7 10 -8 5 -5 -13 3 -20 1 -25 -10 -21 -9 3 -14
0 -12 -7 2 -7 -3 -15 -11 -18 -9 -3 -11 0 -6 9 5 8 4 11 -1 6 -9 -9 -10 -13
-13 -43 -1 -11 -7 -14 -17 -10 -14 5 -15 4 -4 -9 11 -13 10 -14 -6 -8 -17 6
-17 5 -5 -10 12 -15 12 -17 -4 -11 -13 5 -16 4 -11 -4 4 -7 1 -12 -8 -12 -9 0
-16 -5 -16 -11 0 -5 6 -7 13 -3 8 5 7 2 -2 -9 -11 -14 -16 -15 -29 -5 -10 8
-13 9 -9 2 4 -7 0 -14 -7 -17 -10 -4 -13 -15 -10 -34 5 -27 4 -27 -10 -8 -14
19 -15 19 -12 -8 3 -23 1 -25 -12 -15 -13 11 -14 11 -7 -1 6 -11 4 -13 -8 -8
-12 4 -14 2 -10 -10 4 -11 2 -14 -5 -9 -8 4 -10 2 -6 -7 3 -8 0 -18 -5 -22 -6
-3 -8 -11 -5 -17 4 -7 0 -6 -13 1 -18 9 -20 7 -16 -17 1 -15 0 -21 -3 -14 -8
17 -35 -4 -28 -23 3 -7 0 -16 -7 -21 -7 -4 -10 -3 -5 4 3 6 2 13 -3 16 -5 3
-8 -7 -7 -22 1 -17 -3 -29 -11 -29 -6 0 -9 5 -6 11 4 6 -3 2 -15 -8 -25 -21
-31 -36 -7 -16 10 8 15 9 15 2 0 -6 -7 -15 -15 -20 -10 -5 -13 -15 -9 -25 3
-9 11 -14 16 -11 6 4 4 -4 -2 -17 -10 -20 -10 -22 1 -11 16 15 43 16 33 0 -4
-7 -3 -8 5 -4 6 4 9 11 6 16 -3 5 -1 11 4 14 5 4 8 -5 7 -19 -2 -13 1 -22 5
-19 5 3 9 15 10 27 l0 22 9 -21 c11 -27 27 -38 27 -19 0 8 -3 12 -7 10 -4 -2
-7 2 -7 9 0 7 6 13 13 13 7 0 11 -3 9 -7 -2 -3 0 -12 6 -20 7 -12 9 -10 9 9 0
18 4 22 18 16 9 -4 25 -8 36 -10 10 -3 25 -10 35 -17 12 -9 11 -7 -2 9 -18 21
-18 21 2 16 11 -3 22 -12 24 -22 4 -14 5 -14 6 2 0 9 6 17 12 17 5 0 8 -4 5
-8 -2 -4 5 -9 17 -9 17 -2 19 0 7 7 -13 8 -13 10 2 10 9 0 18 -6 21 -12 2 -7
8 -10 12 -6 4 4 2 15 -6 25 -12 15 -12 16 1 8 8 -5 22 -10 30 -12 8 -1 16 -7
18 -12 2 -6 8 -11 13 -11 6 0 8 4 4 9 -3 5 -1 13 5 16 6 4 9 1 8 -7 -2 -8 5
-12 20 -11 16 2 21 -1 16 -10 -6 -9 -5 -9 8 0 8 7 18 10 21 6 4 -3 7 -1 7 6 0
8 -7 11 -17 6 -15 -5 -16 -4 -5 7 11 11 17 9 34 -12 20 -24 21 -24 16 -3 -4
15 -2 20 7 16 8 -2 12 -13 10 -24 -5 -23 -1 -24 16 -2 12 15 12 16 -1 8 -8 -4
-12 -4 -7 0 4 5 17 10 29 12 18 3 19 1 7 -14 -11 -15 -11 -16 1 -6 18 16 44
17 34 1 -4 -7 -3 -8 5 -4 6 4 9 11 6 16 -13 22 20 21 38 -1 19 -23 20 -23 15
-2 -4 15 -2 20 7 16 8 -2 12 -13 10 -24 -5 -23 -1 -24 16 -2 12 15 12 16 -1 8
-8 -4 -12 -4 -7 0 12 14 40 15 56 2 11 -9 13 -9 8 0 -4 6 -2 15 4 19 7 4 9 3
6 -2 -3 -6 -2 -16 4 -24 7 -12 9 -10 9 9 0 18 4 22 18 16 9 -4 25 -8 36 -10
10 -3 25 -10 35 -17 12 -9 11 -7 -2 9 -18 21 -18 21 2 16 11 -3 22 -12 24 -22
4 -14 5 -14 6 2 0 9 6 17 12 17 5 0 8 -4 5 -8 -2 -4 5 -9 17 -9 17 -2 19 0 7
7 -13 8 -13 10 2 10 9 0 18 -6 21 -12 2 -7 8 -10 12 -6 4 4 2 15 -6 25 -12 15
-12 16 1 8 8 -5 22 -10 30 -12 8 -1 16 -7 18 -12 2 -6 8 -11 13 -11 6 0 8 4 4
9 -3 5 -1 13 5 16 6 4 9 1 8 -7 -2 -8 5 -12 20 -11 16 2 21 -1 16 -10 -6 -9
-5 -9 8 0 8 7 18 10 21 6 4 -3 7 -1 7 6 0 8 -7 11 -17 6 -15 -5 -16 -4 -5 7
11 11 17 9 34 -12 20 -24 21 -24 16 -3 -4 15 -2 20 7 16 8 -2 12 -13 10 -24
-5 -23 -1 -24 16 -2 12 14 12 16 0 8 -9 -5 -12 -4 -8 2 9 15 72 9 94 -8 16
-12 16 -12 0 8 -18 21 -18 21 2 16 11 -3 22 -12 24 -22 4 -14 5 -14 6 2 0 9 6
17 12 17 5 0 8 -4 5 -8 -2 -4 5 -9 17 -9 17 -2 19 0 7 7 -13 8 -12 10 3 10 9
0 17 -6 17 -12 0 -9 4 -8 10 2 8 13 14 13 42 -3 33 -19 33 -19 14 1 -17 20
-17 20 3 15 12 -3 21 -13 22 -22 0 -12 2 -12 8 4 8 19 8 19 19 0 6 -11 12 -14
12 -7 0 6 4 12 10 12 5 0 7 -8 4 -17 -5 -17 -5 -17 6 0 6 9 9 21 5 26 -3 5 8
4 24 -2 17 -6 27 -15 24 -21 -3 -5 -1 -6 6 -2 6 4 9 11 6 16 -13 22 20 21 38
-1 19 -23 20 -23 15 -2 -4 15 -2 20 7 16 8 -2 12 -13 10 -24 -5 -23 -1 -24 16
-2 12 15 12 16 -1 8 -8 -4 -12 -4 -7 0 12 14 40 15 56 2 11 -9 13 -9 8 0 -4 6
-2 15 4 19 7 4 9 3 6 -2 -3 -6 -2 -16 4 -24 7 -12 9 -10 9 9 0 18 4 22 18 16
9 -4 25 -8 36 -10 10 -3 25 -10 35 -17 12 -9 11 -7 -2 9 -18 21 -18 21 2 16
11 -3 22 -12 24 -22 4 -14 5 -14 6 2 0 9 6 17 12 17 5 0 8 -4 5 -8 -2 -4 5 -9
17 -9 17 -2 19 0 7 7 -13 8 -13 10 2 10 9 0 18 -6 21 -12 2 -7 8 -10 12 -6 4
4 2 15 -6 25 -12 15 -12 16 1 8 8 -5 22 -10 30 -12 8 -1 16 -7 18 -12 2 -6 8
-11 13 -11 6 0 8 4 4 9 -3 5 -1 13 5 16 6 4 9 1 8 -7 -2 -8 5 -12 20 -11 16 2
21 -1 16 -10 -6 -9 -5 -9 8 0 8 7 18 10 21 6 4 -3 7 -1 7 6 0 8 -7 11 -17 6
-15 -5 -16 -4 -5 7 11 11 17 9 34 -12 20 -24 21 -24 16 -3 -4 15 -2 20 7 16 8
-2 12 -13 10 -24 -5 -23 -1 -24 16 -2 12 14 12 16 0 8 -9 -5 -12 -4 -8 2 9 15
72 9 94 -8 16 -12 16 -12 0 8 -18 21 -18 21 2 16 11 -3 22 -12 24 -22 4 -14 5
-14 6 2 0 9 5 17 11 17 5 0 9 -5 7 -11 -1 -6 5 -14 13 -16 13 -4 13 -3 0 6 -8
6 -13 11 -10 12 3 0 13 2 23 4 9 2 17 0 17 -5 0 -12 30 -21 43 -13 7 4 19 8
27 10 8 1 21 10 28 20 13 17 14 16 7 -4 -4 -14 -2 -23 4 -23 10 0 14 11 14 45
0 31 -3 36 -15 29 -8 -5 -8 -2 1 10 8 9 10 16 5 15 -5 -1 -15 -1 -23 0 -11 1
-11 4 0 18 13 15 12 15 -11 3 -22 -12 -24 -12 -12 2 10 13 10 18 1 24 -7 4 -9
3 -6 -3 3 -5 0 -10 -7 -10 -8 0 -12 6 -9 14 3 7 -2 15 -10 19 -13 5 -32 48
-29 65 1 4 -6 6 -16 5 -10 0 -16 6 -16 16 1 11 -4 14 -14 11 -10 -4 -13 -2 -8
5 4 7 2 12 -4 12 -7 0 -9 7 -6 16 3 9 2 12 -5 9 -6 -4 -8 -13 -5 -21 3 -7 2
-15 -2 -18 -4 -3 -9 5 -9 16 -3 33 -24 78 -34 72 -5 -3 -17 0 -26 6 -17 11
-17 11 0 6 9 -3 17 -1 17 4 0 6 -7 10 -16 10 -10 0 -14 6 -11 15 7 18 -9 30
-19 14 -5 -8 -3 -9 7 -4 12 8 12 6 0 -8 -17 -21 -18 -21 -18 0 0 43 -2 46 -20
32 -15 -13 -15 -12 -5 8 9 16 9 24 0 29 -7 5 -9 2 -4 -7 4 -8 1 -6 -7 3 -8 10
-18 14 -23 10 -4 -4 -3 0 3 8 8 10 9 21 3 30 -6 9 -10 10 -10 3 0 -6 -9 -11
-19 -10 -11 0 -17 5 -15 9 3 5 10 6 15 3 5 -3 6 1 3 9 -6 17 -32 29 -45 21 -5
-4 -6 0 -4 7 3 8 -4 23 -15 35 -22 25 -26 43 -8 43 6 0 8 3 5 6 -4 4 -13 1
-22 -6 -12 -10 -15 -9 -16 6 -1 11 -1 23 0 27 1 4 -9 2 -21 -4 -21 -11 -22
-11 -9 4 12 15 11 17 -3 17 -9 0 -16 6 -16 14 0 8 -5 18 -12 22 -7 5 -8 2 -3
-7 6 -10 5 -11 -4 -3 -7 6 -13 21 -14 33 -1 11 -7 21 -15 21 -7 0 -10 -4 -7
-10 3 -5 1 -10 -4 -10 -14 0 -14 6 0 32 6 12 7 18 1 14 -5 -3 -13 1 -16 9 -3
8 -11 14 -18 13 -7 -2 -14 8 -16 21 -3 19 -6 21 -13 10 -7 -11 -9 -10 -9 4 0
12 -4 16 -12 11 -8 -5 -7 0 2 11 9 11 10 16 3 11 -8 -4 -13 -2 -13 6 -1 21
-36 58 -56 58 -9 0 -14 3 -11 6 7 8 -31 44 -46 44 -5 0 -3 8 4 17 8 9 9 14 4
11 -6 -4 -17 -3 -25 2 -12 7 -12 11 0 27 12 15 12 16 0 6 -21 -19 -35 -16 -19
4 10 11 10 14 2 9 -8 -4 -13 -2 -13 5 0 8 -5 7 -17 -2 -15 -13 -15 -12 -4 9
11 22 6 28 -21 23 -12 -2 -9 14 5 28 10 10 9 11 -5 6 -10 -4 -18 -12 -18 -18
0 -6 -3 -8 -6 -5 -3 4 0 17 7 30 11 21 11 22 -4 9 -15 -12 -17 -11 -18 10 0
22 -1 23 -9 4 -8 -18 -9 -18 -10 5 -2 14 -2 29 -1 33 1 5 -2 6 -7 3 -5 -3 -14
4 -22 14 -8 10 -18 16 -24 13 -5 -4 -7 1 -3 11 6 14 3 17 -9 12 -14 -5 -15 -4
-5 8 9 11 8 15 -4 20 -9 3 -13 2 -10 -4 3 -6 -1 -7 -10 -4 -14 6 -14 8 2 20
10 8 14 14 8 13 -23 -3 -35 2 -35 15 0 8 -7 17 -16 20 -9 3 -12 11 -8 18 6 10
4 11 -7 1 -19 -19 -33 -16 -15 3 21 20 10 40 -12 22 -12 -10 -14 -10 -8 0 4 6
2 12 -4 12 -6 0 -10 8 -8 18 2 11 -4 18 -20 20 -12 2 -20 8 -17 13 4 5 1 9 -6
9 -7 0 -4 7 7 16 10 8 14 13 7 10 -26 -13 -70 -13 -70 1 0 16 9 17 27 1 8 -7
11 -9 7 -4 -3 5 1 14 10 21 13 9 13 14 3 20 -9 5 -11 4 -6 -3 4 -7 3 -12 -3
-12 -6 0 -15 9 -20 19 -9 16 -8 18 9 14 12 -3 22 1 26 11 3 9 10 14 14 11 4
-3 14 3 21 12 10 12 10 14 2 9 -18 -10 -16 5 4 29 l16 20 -7 -20 c-5 -15 -4
-17 4 -9 6 6 12 20 13 32 1 16 4 18 14 10 16 -13 17 4 1 20 -7 7 -9 12 -6 12
4 0 14 -7 23 -16 15 -15 15 -14 9 12 -6 26 -5 27 8 16 13 -10 18 -10 24 -1 4
7 3 9 -3 6 -6 -4 -14 0 -17 9 -3 8 -2 13 3 9 12 -7 41 5 41 17 0 6 -8 4 -17
-3 -16 -12 -17 -12 -6 2 7 9 9 19 5 24 -4 4 2 3 13 -3 18 -9 21 -7 22 11 1 12
9 27 17 33 9 6 12 15 8 20 -4 4 1 2 11 -5 15 -12 17 -12 11 4 -6 14 -4 16 7
10 12 -7 12 -6 1 7 -10 13 -10 18 -1 24 8 4 9 3 5 -4 -4 -7 -1 -12 9 -12 9 0
14 4 11 9 -3 5 1 11 9 15 8 3 15 13 15 22 0 10 5 14 16 10 8 -3 13 -2 10 3 -3
4 5 18 19 31 13 12 21 28 18 36 -3 8 2 17 11 20 9 3 13 11 9 18 -4 6 2 4 12
-4 17 -14 18 -14 5 10 -12 23 -12 24 4 11 14 -12 16 -12 10 4 -5 13 -4 16 4
11 7 -4 12 -2 12 4 0 6 5 8 10 5 6 -3 10 3 10 14 0 12 6 21 14 21 8 0 16 7 19
14 4 11 1 13 -11 10 -15 -5 -15 -4 1 6 9 6 23 8 30 4 9 -6 9 -4 -1 8 -10 13
-9 18 5 29 9 8 14 9 11 4 -4 -6 -3 -17 3 -25 6 -11 8 -5 5 18 -3 27 0 33 20
38 13 3 24 10 24 16 0 5 -5 6 -12 2 -7 -4 -8 -3 -4 4 4 7 16 12 26 12 12 0 17
5 14 13 -2 7 7 24 20 36 14 13 23 28 19 34 -3 6 -1 7 5 3 5 -3 12 -1 14 4 2 6
12 12 23 14 14 2 20 10 19 29 0 17 4 23 10 18 7 -6 17 -3 26 7 13 14 13 15 -1
10 -10 -4 -16 -1 -16 8 0 8 3 12 5 9 3 -3 12 1 20 8 13 10 14 9 7 -2 -5 -10
-4 -12 4 -7 9 6 9 11 -1 24 -11 13 -10 14 9 4 19 -11 21 -9 19 13 -2 13 3 26
10 29 8 3 12 11 10 18 -1 7 -1 10 1 6 8 -14 23 -9 23 7 0 18 16 20 23 3 3 -7
4 2 2 20 -3 26 0 32 10 28 18 -7 30 10 13 18 -7 4 -3 4 10 2 20 -4 21 -2 10
12 -10 12 -10 14 0 8 7 -4 12 -2 12 8 0 8 4 18 10 21 5 3 8 0 7 -7 -2 -7 -2
-10 0 -5 3 4 9 4 15 1 6 -4 6 1 -1 13 -7 14 -7 23 1 31 18 18 38 14 32 -5 -5
-14 -4 -15 4 -4 5 8 9 24 7 38 -2 20 0 21 14 11 9 -7 13 -9 9 -4 -14 16 11 44
34 40 l23 -5 -23 11 c-26 11 -21 33 5 23 13 -5 15 -2 10 12 -7 16 -5 16 9 4
16 -13 16 -12 5 9 -12 22 -11 23 9 12 13 -7 20 -8 16 -2 -3 6 3 17 14 25 11 7
18 16 15 19 -3 3 1 17 8 31 13 26 29 28 23 4 -2 -7 -1 -9 1 -5 3 4 5 11 5 15
1 5 7 13 14 18 8 6 15 19 17 30 2 20 17 29 27 18 3 -4 -1 -3 -9 2 -10 5 -12 4
-7 -4 11 -18 24 -4 21 23 -2 19 1 23 13 19 15 -4 15 -3 2 6 -11 7 -386 11
-1265 10 -687 0 -1244 -3 -1237 -6z m84 -80 c-6 -2 -9 -10 -6 -15 4 -7 2 -8
-5 -4 -13 9 -5 26 12 25 9 0 8 -2 -1 -6z m2288 -71 c0 -5 -7 -17 -15 -28 -14
-18 -14 -17 -4 9 12 27 19 34 19 19z m-414 -508 c1 -9 0 -13 -4 -10 -3 4 -7
14 -8 22 -1 9 0 13 4 10 3 -4 7 -14 8 -22z m-346 -408 c0 -2 -7 -9 -15 -16
-13 -11 -14 -10 -9 4 5 14 24 23 24 12z m-560 -152 c0 -8 -19 -13 -24 -6 -3 5
1 9 9 9 8 0 15 -2 15 -3z m152 -341 c-6 -3 -10 -8 -8 -12 3 -4 -1 -8 -9 -8
-13 0 -12 4 2 19 9 10 19 15 22 12 3 -4 0 -9 -7 -11z m-313 -386 c-2 -1 -13
-9 -24 -17 -19 -14 -19 -14 -6 3 7 9 18 17 24 17 6 0 8 -1 6 -3z m-99 -107 c0
-5 -5 -10 -11 -10 -5 0 -7 5 -4 10 3 6 8 10 11 10 2 0 4 -4 4 -10z m972 -37
c10 -9 18 -23 17 -32 0 -10 -4 -7 -10 7 -5 14 -13 20 -20 16 -7 -4 -9 -3 -5 4
3 5 0 13 -6 15 -7 3 -9 6 -4 6 5 1 18 -6 28 -16z m93 -123 c-3 -5 -12 -10 -18
-10 -7 0 -6 4 3 10 19 12 23 12 15 0z m392 -472 c-3 -8 -6 -5 -6 6 -1 11 2 17
5 13 3 -3 4 -12 1 -19z m-1777 -292 c0 -3 -4 -8 -10 -11 -5 -3 -10 -1 -10 4 0
6 5 11 10 11 6 0 10 -2 10 -4z m640 0 c0 -3 -4 -8 -10 -11 -5 -3 -10 -1 -10 4
0 6 5 11 10 11 6 0 10 -2 10 -4z m420 0 c0 -3 -4 -8 -10 -11 -5 -3 -10 -1 -10
4 0 6 5 11 10 11 6 0 10 -2 10 -4z m540 0 c0 -3 -4 -8 -10 -11 -5 -3 -10 -1
-10 4 0 6 5 11 10 11 6 0 10 -2 10 -4z m320 -17 c0 -14 -17 -10 -23 5 -4 10
-1 13 9 9 7 -3 14 -9 14 -14z m40 15 c0 -8 -19 -13 -24 -6 -3 5 1 9 9 9 8 0
15 -2 15 -3z"/>
<path d="M1245 5071 c6 -11 4 -13 -10 -7 -15 5 -16 4 -6 -8 9 -11 9 -16 0 -22
-8 -4 -9 -3 -5 4 4 7 2 12 -3 12 -6 0 -11 -5 -11 -11 0 -16 -29 -41 -40 -34
-7 4 -7 -2 0 -20 9 -23 8 -25 -10 -15 -16 9 -18 7 -15 -10 3 -13 0 -18 -7 -14
-8 5 -9 1 -5 -10 5 -11 3 -15 -5 -10 -7 5 -9 2 -5 -9 4 -11 2 -14 -8 -10 -8 3
-12 9 -9 14 3 5 0 9 -6 9 -6 0 -8 -11 -6 -25 3 -13 0 -28 -6 -31 -7 -5 -8 -2
-3 6 5 8 3 11 -6 8 -8 -3 -13 -13 -11 -23 2 -10 -1 -14 -7 -10 -10 6 -15 -7
-12 -30 1 -5 -6 -1 -15 10 -14 16 -16 17 -11 3 4 -10 2 -18 -3 -18 -5 0 -6 -8
-3 -17 5 -12 2 -15 -10 -10 -9 3 -17 2 -17 -2 0 -5 6 -12 13 -14 6 -3 2 -6 -9
-6 -31 -1 -50 -27 -34 -46 11 -13 10 -14 -4 -9 -9 4 -16 3 -14 -2 2 -5 -1 -10
-5 -11 -5 -1 -15 -10 -24 -20 -8 -10 -11 -12 -7 -4 5 10 3 12 -5 7 -9 -6 -9
-11 -1 -21 9 -11 6 -13 -12 -9 -13 2 -18 2 -11 -2 8 -4 7 -10 -4 -24 -9 -10
-20 -17 -25 -14 -4 3 -5 -2 -2 -10 4 -11 0 -16 -11 -16 -10 0 -13 5 -9 12 4 6
3 8 -4 5 -11 -8 -11 -25 1 -44 6 -10 2 -11 -18 -3 -14 5 -24 6 -21 1 4 -5 0
-12 -6 -15 -7 -3 -3 -3 10 0 23 6 23 5 5 -15 -20 -24 -27 -27 -18 -8 4 6 0 4
-8 -5 -8 -10 -18 -14 -23 -10 -4 4 -2 -1 5 -11 12 -15 12 -17 -1 -12 -17 7
-43 -19 -34 -34 4 -5 1 -13 -5 -17 -6 -3 -15 0 -20 7 -5 8 -9 9 -9 4 0 -6 5
-16 12 -23 9 -9 6 -11 -11 -7 -20 4 -21 2 -9 -12 11 -14 11 -16 -1 -8 -11 6
-13 4 -7 -10 6 -18 6 -18 -16 1 -20 17 -21 17 -8 0 13 -16 12 -20 -4 -32 -11
-7 -23 -11 -27 -8 -5 3 -6 -2 -3 -11 4 -9 -1 -24 -10 -34 -9 -10 -13 -21 -9
-25 5 -4 -1 -6 -12 -4 -13 2 -20 -2 -19 -13 1 -9 -6 -16 -15 -15 -8 0 -16 -5
-16 -13 0 -8 -6 -16 -14 -19 -9 -3 -11 0 -6 9 5 8 4 11 -1 6 -9 -9 -10 -13
-13 -43 0 -8 -5 -12 -11 -9 -6 3 -10 -1 -10 -11 0 -13 -3 -14 -14 -5 -11 9
-12 7 -9 -12 3 -17 -3 -30 -21 -44 -14 -11 -22 -24 -18 -28 4 -5 2 -5 -5 -2
-6 4 -13 1 -16 -5 -2 -7 -8 -10 -12 -6 -4 4 -2 16 6 25 13 16 12 17 -4 4 -10
-8 -16 -20 -13 -27 3 -7 -2 -15 -11 -18 -11 -5 -13 -10 -4 -20 14 -17 -21 -51
-44 -43 -8 4 -15 2 -15 -3 0 -6 5 -10 10 -10 6 0 10 -4 10 -10 0 -5 -6 -7 -13
-4 -8 3 -20 -3 -28 -13 -13 -16 -12 -17 4 -4 11 9 17 10 17 2 0 -6 -13 -14
-28 -17 -16 -3 -29 -12 -29 -20 0 -10 4 -11 11 -4 5 5 14 10 19 10 5 0 -1 -9
-14 -19 -17 -14 -26 -16 -32 -8 -5 7 -7 1 -4 -15 4 -25 2 -26 -17 -16 -20 11
-20 10 -6 -7 13 -17 13 -18 -1 -13 -12 5 -16 1 -15 -15 1 -13 -4 -21 -12 -19
-11 2 -16 -11 -13 -31 1 -4 -7 -3 -18 2 -17 9 -19 8 -16 -14 2 -20 -1 -23 -11
-15 -9 9 -12 5 -10 -14 3 -22 1 -24 -16 -15 -18 10 -18 9 -8 -11 10 -18 9 -21
-1 -15 -9 6 -11 3 -6 -9 6 -14 4 -15 -14 -5 -17 9 -20 8 -14 -2 6 -9 3 -10
-10 -5 -14 5 -16 4 -7 -7 13 -15 8 -51 -10 -76 -10 -13 -10 -14 2 -3 17 15 34
16 24 1 -4 -8 1 -9 17 -5 21 6 22 5 6 -4 -25 -16 -3 -43 27 -35 17 5 18 4 6
-4 -14 -10 -7 -16 14 -12 5 1 4 -4 -2 -12 -12 -14 1 -37 22 -37 5 0 1 7 -10
16 -18 14 -18 15 4 4 18 -9 21 -14 12 -25 -10 -12 -8 -13 9 -10 11 2 24 -1 27
-7 4 -7 2 -8 -4 -4 -7 4 -12 1 -12 -8 0 -8 9 -18 20 -21 11 -3 20 -11 20 -16
0 -6 6 -7 12 -3 8 5 8 2 -1 -10 -12 -15 -12 -17 0 -14 8 2 13 -2 12 -8 -1 -7
8 -20 20 -30 18 -16 20 -16 8 -1 -7 9 -9 17 -4 17 5 0 15 -12 22 -26 8 -18 16
-24 28 -19 10 3 14 3 10 -1 -4 -4 -2 -13 4 -21 6 -7 9 -22 6 -34 -3 -12 -3
-18 0 -15 4 3 16 -2 27 -11 20 -17 20 -17 6 1 -14 18 -14 18 7 6 17 -11 19
-18 12 -32 -8 -14 -6 -16 8 -11 13 5 15 3 10 -12 -6 -15 -5 -16 8 -5 13 11 14
10 9 -5 -5 -13 -4 -16 4 -11 7 4 12 2 12 -4 0 -6 6 -8 13 -4 6 4 3 -3 -8 -17
-15 -18 -16 -20 -3 -10 13 10 18 10 18 2 0 -7 5 -9 12 -5 8 5 8 2 -1 -10 -8
-9 -10 -16 -5 -15 19 3 34 -1 34 -12 0 -5 -6 -7 -12 -3 -7 4 -2 -5 11 -19 25
-27 37 -35 26 -17 -3 6 -1 10 6 10 6 0 9 -8 6 -19 -3 -14 -1 -18 9 -14 9 3 14
-2 14 -17 0 -11 5 -18 10 -15 6 3 10 1 10 -5 0 -6 4 -8 10 -5 6 3 7 -1 4 -9
-3 -9 -1 -16 5 -16 6 0 11 5 11 12 0 6 3 8 6 5 4 -4 1 -14 -7 -24 -8 -9 -9
-14 -3 -10 6 4 19 -8 30 -28 10 -19 24 -35 31 -35 7 0 13 -5 13 -11 0 -8 4 -8
14 0 11 9 16 9 22 0 4 -8 3 -9 -4 -5 -8 5 -12 -1 -12 -14 0 -16 4 -20 16 -16
12 5 14 1 8 -16 -6 -20 -5 -21 9 -10 14 12 16 11 12 -8 -3 -18 -2 -20 10 -10
11 9 12 7 8 -12 -4 -19 -3 -20 7 -8 10 12 11 11 7 -8 -4 -18 -3 -21 7 -13 10
8 20 3 39 -19 15 -17 22 -30 17 -30 -6 0 -13 7 -16 15 -4 8 -11 12 -17 8 -6
-4 -7 -1 -2 7 6 9 4 11 -5 5 -10 -6 -6 -14 15 -31 16 -13 34 -20 39 -16 6 3 4
-3 -4 -13 -9 -11 -10 -16 -2 -11 7 4 12 1 12 -8 0 -9 9 -16 20 -16 11 0 20 -5
20 -11 0 -5 -6 -7 -12 -3 -8 5 -8 1 2 -12 22 -29 24 -30 17 -12 -3 10 -3 20 2
22 4 3 8 -1 9 -9 1 -8 3 -21 4 -29 1 -7 10 -13 21 -12 14 1 21 -6 23 -24 3
-18 2 -21 -5 -10 -5 8 -7 18 -4 24 3 5 1 6 -5 2 -9 -5 -9 -13 -1 -28 11 -21
12 -21 26 -2 13 18 14 17 8 -7 -5 -19 -2 -28 10 -33 9 -3 14 -10 10 -15 -3 -6
4 -8 15 -6 11 2 20 -1 20 -6 0 -6 5 -7 12 -3 7 4 8 3 4 -4 -4 -6 -14 -9 -24
-6 -9 3 -2 -3 17 -13 19 -10 36 -25 39 -33 3 -13 2 -13 -8 0 -10 13 -11 12 -6
-3 3 -10 6 -21 6 -24 0 -3 7 0 15 7 12 10 19 10 27 2 7 -7 8 -12 4 -12 -5 0
-2 -8 5 -17 10 -11 10 -14 2 -9 -8 4 -13 2 -13 -5 0 -7 8 -9 21 -6 16 4 18 3
8 -9 -9 -11 -9 -14 0 -14 7 0 10 -4 7 -8 -3 -5 1 -9 9 -9 8 0 15 5 15 10 0 6
3 7 6 4 4 -4 1 -13 -6 -22 -10 -13 -9 -15 8 -15 11 0 26 -8 33 -17 13 -16 12
-17 -4 -4 -15 12 -17 12 -11 -3 3 -9 12 -16 20 -16 8 0 14 -5 14 -11 0 -5 -5
-7 -12 -3 -7 4 -8 3 -4 -4 4 -6 13 -9 20 -6 8 3 17 0 22 -7 4 -8 3 -10 -4 -5
-8 5 -10 2 -6 -8 9 -24 44 -9 44 19 0 6 -4 4 -9 -4 -7 -10 -9 -7 -8 12 2 19 5
23 15 15 7 -6 15 -8 19 -4 3 3 1 6 -6 6 -8 0 -11 6 -7 16 3 8 2 13 -3 10 -5
-3 -11 1 -14 9 -4 10 -1 12 11 8 14 -5 15 -3 5 8 -7 7 -13 17 -13 22 0 4 6 5
13 1 6 -4 4 2 -6 13 -12 14 -14 21 -5 19 7 0 13 4 13 9 0 6 -3 9 -7 8 -3 -1
-4 18 -1 43 2 27 1 44 -5 41 -5 -4 -9 0 -9 7 0 7 5 13 11 12 6 0 11 4 11 9 0
6 -3 9 -7 8 -3 -1 -4 18 -1 43 2 27 1 44 -5 41 -5 -4 -9 0 -9 7 0 7 5 13 11
12 6 0 11 4 11 9 0 6 -3 9 -7 8 -3 -1 -4 18 -1 43 2 27 1 44 -5 41 -5 -4 -9 0
-9 7 0 7 5 13 11 12 6 0 11 4 11 9 0 6 -3 9 -7 8 -3 -1 -4 18 -1 43 2 27 1 44
-5 41 -5 -4 -9 0 -9 7 0 7 5 13 11 12 6 0 11 4 11 9 0 6 -3 9 -7 8 -3 -1 -4
18 -1 43 2 27 1 44 -5 41 -5 -4 -9 0 -9 7 0 7 5 13 11 12 6 0 11 4 11 9 0 6
-3 9 -7 8 -3 -1 -4 18 -1 43 2 27 1 44 -5 41 -5 -4 -9 0 -9 7 0 7 5 13 11 12
6 0 11 4 11 9 0 6 -3 9 -7 8 -3 -1 -4 18 -1 43 2 27 1 44 -5 41 -5 -4 -9 0 -9
7 0 7 5 13 11 12 6 0 11 4 11 9 0 6 -3 9 -7 8 -3 -1 -4 18 -1 43 2 27 1 44 -5
41 -5 -4 -9 0 -9 7 0 7 5 13 11 12 6 0 11 4 11 9 0 6 -3 9 -7 8 -3 -1 -4 18
-1 43 2 27 1 44 -5 41 -5 -4 -9 0 -9 7 0 7 5 13 11 12 6 0 11 4 11 9 0 6 -3 9
-7 8 -3 -1 -4 18 -1 43 2 27 1 44 -5 41 -5 -4 -9 0 -9 7 0 7 5 13 11 12 6 0
11 4 11 9 0 6 -3 9 -7 8 -3 -1 -4 18 -1 43 2 27 1 44 -5 41 -5 -4 -9 0 -9 7 0
7 5 13 11 12 6 0 11 4 11 9 0 6 -3 9 -7 8 -3 -1 -4 18 -1 43 2 27 1 44 -5 41
-5 -4 -9 0 -9 7 0 7 5 13 11 12 6 0 11 4 11 9 0 5 -3 9 -7 8 -11 -4 4 102 16
110 7 6 5 7 -6 4 -14 -5 -16 0 -11 31 3 20 11 41 17 45 7 6 5 7 -6 4 -14 -5
-16 0 -11 31 3 20 11 41 17 45 7 6 5 7 -6 4 -14 -5 -16 0 -11 31 3 20 11 41
17 45 7 6 5 7 -6 4 -14 -5 -16 0 -11 31 3 20 11 41 17 45 7 6 5 7 -6 4 -14 -5
-16 0 -11 31 3 20 11 41 17 45 7 6 5 7 -6 4 -14 -5 -16 0 -11 31 3 20 11 41
17 45 7 6 5 7 -6 4 -14 -5 -16 0 -11 31 3 20 11 41 17 45 7 6 5 7 -6 4 -14 -5
-16 0 -11 31 3 20 11 41 17 45 7 6 5 7 -6 4 -14 -5 -16 0 -11 31 3 20 11 41
17 45 7 6 5 7 -6 4 -14 -5 -16 0 -11 31 3 20 11 41 17 45 7 6 5 7 -6 4 -14 -5
-16 0 -11 31 3 20 11 41 17 45 7 6 5 7 -6 4 -14 -5 -16 0 -11 31 3 20 11 41
17 45 7 6 5 7 -6 4 -14 -5 -16 0 -11 31 3 20 11 41 17 45 7 6 5 7 -5 4 -20 -7
-32 36 -15 53 7 7 7 16 -2 31 -8 12 -9 18 -4 15 6 -3 13 2 16 11 4 10 4 14 0
10 -4 -4 -14 -1 -22 6 -13 10 -14 9 -7 -2z m-255 -315 c0 -2 -7 -7 -16 -10 -8
-3 -12 -2 -9 4 6 10 25 14 25 6z m-610 -716 c-8 -5 -19 -10 -25 -10 -5 0 -3 5
5 10 8 5 20 10 25 10 6 0 3 -5 -5 -10z m120 -976 c0 -8 -19 -13 -24 -6 -3 5 1
9 9 9 8 0 15 -2 15 -3z m128 -159 c12 -14 18 -25 13 -25 -5 0 -16 11 -25 25
-9 14 -15 25 -13 25 2 0 13 -11 25 -25z m362 -417 c0 -6 -6 -5 -15 2 -8 7 -15
14 -15 16 0 2 7 1 15 -2 8 -4 15 -11 15 -16z"/>
<path d="M3868 5069 c-11 -6 -15 -16 -11 -26 4 -10 2 -14 -5 -9 -6 3 -14 1
-18 -5 -4 -8 -3 -9 4 -5 7 4 12 2 12 -4 0 -6 4 -9 9 -6 5 4 8 -2 6 -11 -2 -10
-4 -22 -4 -26 -1 -5 -7 -5 -13 -1 -7 4 -4 -3 6 -15 20 -22 20 -22 0 -15 -16 6
-17 5 -6 -7 14 -15 16 -33 3 -24 -5 3 -13 0 -17 -6 -4 -8 -3 -9 4 -5 13 8 16
-3 12 -43 -1 -13 2 -21 7 -18 6 4 10 0 10 -7 0 -9 -7 -12 -16 -9 -13 5 -14 3
-3 -8 14 -15 16 -33 3 -24 -5 3 -13 0 -17 -6 -4 -8 -3 -9 4 -5 13 8 16 -3 12
-43 -1 -13 2 -21 7 -18 6 4 10 0 10 -7 0 -9 -7 -12 -16 -9 -13 5 -14 3 -3 -8
14 -15 16 -33 3 -24 -5 3 -13 0 -17 -6 -4 -8 -3 -9 4 -5 13 8 16 -3 12 -43 -1
-13 2 -21 7 -18 6 4 10 0 10 -7 0 -9 -7 -12 -16 -9 -13 5 -14 3 -3 -8 14 -15
16 -33 3 -24 -5 3 -13 0 -17 -6 -4 -8 -3 -9 4 -5 13 8 16 -3 12 -43 -1 -13 2
-21 7 -18 6 4 10 0 10 -7 0 -9 -7 -12 -16 -9 -13 5 -14 3 -3 -8 14 -15 16 -33
3 -24 -5 3 -13 0 -17 -6 -4 -8 -3 -9 4 -5 13 8 16 -3 12 -43 -1 -13 2 -21 7
-18 6 4 10 0 10 -7 0 -9 -7 -12 -16 -9 -13 5 -14 3 -3 -8 14 -15 16 -33 3 -24
-5 3 -13 0 -17 -6 -4 -8 -3 -9 4 -5 13 8 16 -3 12 -43 -1 -13 2 -21 7 -18 6 4
10 0 10 -7 0 -9 -7 -12 -16 -9 -13 5 -14 3 -3 -8 14 -15 16 -33 3 -24 -5 3
-13 0 -17 -6 -4 -8 -3 -9 4 -5 13 8 16 -3 12 -43 -1 -13 2 -21 7 -18 6 4 10 0
10 -7 0 -9 -7 -12 -16 -9 -13 5 -14 3 -3 -8 14 -15 16 -33 3 -24 -5 3 -13 0
-17 -6 -4 -8 -3 -9 4 -5 13 8 16 -3 12 -43 -1 -13 2 -21 7 -18 6 4 10 0 10 -7
0 -9 -7 -12 -16 -9 -13 5 -14 3 -3 -8 14 -15 16 -33 3 -24 -5 3 -13 0 -17 -6
-4 -8 -3 -9 4 -5 13 8 16 -3 12 -43 -1 -13 2 -21 7 -18 6 4 10 0 10 -7 0 -9
-7 -12 -16 -8 -14 5 -14 3 1 -14 10 -12 14 -25 9 -33 -6 -9 -11 -10 -15 -2 -4
6 -2 11 5 11 7 0 10 3 6 6 -3 3 -11 3 -17 -1 -8 -5 -4 -15 12 -32 20 -22 21
-23 3 -17 -16 6 -18 5 -7 -7 15 -16 16 -33 0 -23 -7 5 -8 3 -3 -7 5 -7 8 -26
7 -42 -1 -16 1 -26 6 -23 5 3 9 -1 9 -8 0 -9 -7 -12 -16 -9 -13 5 -14 3 -3 -8
15 -16 16 -33 0 -23 -7 5 -8 3 -3 -7 5 -7 8 -26 7 -42 -1 -16 1 -26 6 -23 5 3
9 -1 9 -8 0 -9 -7 -12 -16 -9 -13 5 -14 3 -3 -8 15 -16 16 -33 0 -23 -7 5 -8
3 -3 -7 5 -7 8 -26 7 -42 -1 -16 1 -26 6 -23 5 3 9 -1 9 -8 0 -9 -7 -12 -16
-9 -13 5 -14 3 -3 -8 15 -16 16 -33 0 -23 -7 5 -8 3 -3 -7 5 -7 8 -26 7 -42
-1 -16 1 -26 6 -23 5 3 9 -1 9 -8 0 -9 -7 -12 -16 -9 -13 5 -14 3 -3 -8 15
-16 16 -33 0 -23 -7 5 -8 3 -3 -7 5 -7 8 -26 7 -42 -1 -16 1 -26 6 -23 5 3 9
-1 9 -8 0 -9 -7 -12 -16 -9 -13 5 -14 3 -3 -8 15 -16 16 -33 0 -23 -7 5 -8 3
-3 -7 5 -7 8 -26 7 -42 -1 -16 1 -26 6 -23 5 3 9 -1 9 -8 0 -9 -7 -12 -16 -9
-13 5 -14 3 -3 -8 15 -16 16 -33 0 -23 -7 5 -8 3 -3 -7 5 -7 8 -26 7 -42 -1
-16 1 -26 6 -23 5 3 9 -1 9 -8 0 -9 -7 -12 -16 -9 -13 5 -14 3 -3 -8 15 -16
16 -33 0 -23 -7 5 -8 3 -3 -7 5 -7 8 -26 7 -42 -1 -16 1 -26 6 -23 5 3 9 -1 9
-8 0 -9 -7 -12 -16 -9 -13 5 -14 3 -3 -8 15 -16 16 -33 0 -23 -7 5 -8 3 -3 -7
5 -7 8 -26 7 -42 -1 -16 1 -26 6 -23 5 3 9 -1 9 -8 0 -9 -7 -12 -16 -9 -13 5
-14 3 -3 -8 15 -16 16 -33 0 -23 -7 5 -8 3 -3 -7 5 -7 8 -26 7 -42 -1 -16 1
-26 6 -23 5 3 9 -1 9 -8 0 -8 -7 -12 -15 -8 -11 4 -13 2 -6 -9 4 -8 7 -22 6
-32 -2 -10 2 -25 9 -33 10 -12 9 -13 -7 -8 -16 6 -17 5 -6 -7 14 -15 16 -33 3
-24 -5 3 -13 0 -17 -6 -4 -8 -3 -9 4 -5 13 8 16 -3 12 -43 -1 -13 2 -21 7 -18
6 4 10 0 10 -7 0 -9 -7 -12 -16 -9 -13 5 -14 3 -3 -8 14 -15 16 -33 3 -24 -5
3 -13 0 -17 -6 -4 -8 -3 -9 4 -5 13 8 16 -3 12 -43 -1 -13 2 -21 7 -18 6 4 10
0 10 -7 0 -9 -7 -12 -16 -9 -13 5 -14 3 -3 -8 15 -16 16 -33 1 -23 -8 4 -8 0
0 -15 11 -20 8 -25 -12 -22 -5 1 -6 -3 -2 -8 3 -6 13 -7 23 -4 15 6 15 5 3
-11 -13 -15 -13 -19 -1 -26 16 -10 33 -3 25 10 -3 5 6 12 20 16 13 3 22 10 19
16 -3 5 -13 4 -22 -4 -11 -8 -10 -5 3 10 12 15 26 21 40 18 20 -5 20 -5 0 11
-20 15 -20 15 3 10 23 -6 24 -5 5 15 -18 21 -18 21 5 9 13 -7 26 -10 30 -7 3
3 1 6 -3 6 -5 0 7 16 26 37 18 20 28 33 22 29 -7 -4 -13 -2 -13 3 0 6 7 11 15
11 8 0 15 8 15 19 0 10 7 25 17 32 15 13 15 12 3 -11 -12 -23 -12 -24 3 -11
19 16 23 41 5 41 -6 0 -9 3 -6 6 4 3 17 0 30 -7 22 -12 22 -11 8 6 -14 17 -13
18 4 12 16 -6 17 -5 6 8 -11 13 -9 15 11 15 19 0 21 2 9 10 -14 9 -7 14 13 11
4 -1 15 6 25 15 15 15 14 16 -7 9 -24 -7 -24 -7 -5 12 19 20 53 37 66 35 4 -1
3 10 -3 25 -6 15 -7 24 -3 21 4 -4 16 -2 28 4 11 7 25 11 29 10 5 -1 6 2 2 8
-5 8 -11 8 -19 1 -9 -8 -13 -7 -13 3 0 8 9 13 22 11 18 -1 21 3 19 22 -2 20 0
22 12 12 12 -10 17 -10 27 0 9 10 8 11 -5 6 -11 -4 -18 -2 -18 4 0 6 5 11 10
11 6 0 9 6 8 13 -2 6 4 11 13 9 9 -1 23 6 30 15 13 17 13 17 -5 3 -17 -13 -19
-13 -14 0 3 8 14 15 26 15 12 0 22 5 21 10 0 6 -7 9 -15 7 -8 -2 -14 1 -14 7
0 5 11 8 25 7 20 -3 23 0 15 14 -11 20 -4 31 16 23 10 -4 12 0 7 12 -5 15 -2
17 23 12 27 -5 27 -4 9 9 -16 12 -17 14 -2 14 9 0 17 5 17 10 0 6 7 10 15 10
8 0 15 5 15 11 0 5 -4 8 -8 5 -5 -3 -9 1 -9 8 0 8 7 12 14 9 9 -4 16 3 20 16
3 11 10 21 15 21 5 0 6 -5 2 -12 -4 -7 -3 -8 5 -4 9 6 9 11 0 22 -10 13 -6 18
14 15 4 0 7 4 7 11 0 6 3 8 7 5 9 -9 34 13 27 24 -3 5 0 9 5 9 6 0 11 5 11 11
0 5 -5 7 -12 3 -7 -5 -8 -3 -4 5 6 9 13 8 29 -6 l20 -18 -19 29 -18 29 22 -12
c12 -6 22 -8 21 -4 -4 24 3 43 15 43 8 0 13 8 12 18 -1 11 6 17 19 17 13 0 19
6 17 18 -2 11 2 15 13 11 8 -3 15 -1 15 5 0 6 -6 11 -12 11 -7 0 -5 5 5 11 9
5 22 7 27 4 6 -3 7 1 4 9 -3 9 -1 16 5 16 6 0 11 5 11 11 0 5 -5 7 -12 3 -7
-4 -8 -3 -4 5 6 9 11 9 21 1 10 -8 15 -8 21 1 4 7 3 9 -3 6 -6 -4 -14 0 -17 9
-3 8 -2 13 3 9 18 -10 42 7 39 29 -2 16 2 20 16 18 10 -2 15 1 12 6 -3 6 1 13
10 16 8 3 12 11 8 18 -5 8 0 9 14 6 12 -4 20 -2 17 2 -3 5 1 11 7 14 7 3 2 3
-11 0 -24 -6 -24 -6 5 21 16 15 28 29 26 32 -2 2 0 8 4 11 4 4 4 1 0 -5 -4 -7
-3 -13 2 -13 12 0 23 27 14 33 -4 2 -1 2 6 1 6 -2 12 1 12 7 0 6 4 7 10 4 5
-3 7 0 4 8 -3 8 0 18 7 23 8 5 10 3 4 -7 -8 -12 -6 -12 9 0 13 11 14 16 4 23
-9 7 -7 8 8 5 18 -4 22 0 19 18 -2 23 8 26 35 10 11 -6 10 -3 -2 11 -14 16
-15 23 -6 32 7 7 17 12 23 12 5 0 1 -7 -9 -15 -11 -8 -15 -15 -9 -15 18 0 35
28 37 59 2 29 1 30 -16 14 -10 -9 -21 -13 -25 -10 -3 4 -2 7 4 7 22 0 22 30 0
40 -21 11 -21 11 -3 -4 16 -13 17 -16 4 -16 -20 0 -30 24 -15 39 8 8 4 9 -12
6 -19 -4 -21 -2 -10 11 10 12 9 13 -6 7 -15 -5 -17 -3 -12 11 8 21 -21 34 -35
15 -6 -10 -7 -7 -3 10 5 15 3 21 -3 17 -6 -3 -9 2 -7 11 3 24 -13 43 -31 36
-8 -3 -14 0 -14 6 0 6 5 11 10 11 6 0 -4 15 -22 32 -18 18 -36 32 -40 30 -5
-1 -8 5 -8 13 0 9 -7 18 -15 21 -8 4 -12 10 -9 15 3 5 0 9 -6 9 -6 0 -8 5 -4
12 4 7 3 8 -5 4 -6 -4 -9 -11 -6 -16 3 -5 0 -12 -6 -16 -8 -4 -9 -3 -5 4 4 7
1 12 -6 12 -10 0 -10 2 1 9 11 7 10 11 -6 20 -11 5 -22 8 -25 6 -2 -2 -4 4 -4
15 0 10 5 16 10 13 5 -4 6 -1 1 6 -4 8 -17 10 -33 6 l-26 -6 25 20 24 20 -24
-6 c-20 -5 -23 -3 -18 10 4 11 2 14 -7 11 -18 -7 -30 12 -15 22 8 5 9 3 4 -6
-5 -9 -4 -11 4 -6 6 4 9 12 5 17 -3 5 -10 7 -15 4 -5 -4 -17 -1 -26 5 -17 11
-17 11 0 6 11 -3 15 -2 12 4 -3 6 -16 10 -28 11 -20 1 -20 2 3 9 24 8 24 8 3
9 -13 1 -23 6 -23 12 0 5 -6 7 -12 3 -10 -6 -10 -4 0 8 10 13 9 15 -10 14 -19
-1 -23 4 -22 27 1 20 -2 25 -11 17 -16 -13 -28 0 -14 16 7 9 5 14 -10 19 -12
3 -21 12 -21 19 0 14 -65 77 -73 70 -2 -2 -10 3 -18 13 -9 11 -10 14 -1 9 6
-4 12 -2 12 3 0 6 -7 11 -16 11 -8 0 -12 5 -9 10 3 6 2 10 -4 10 -5 0 -11 10
-13 23 -2 15 -9 22 -25 21 -15 -1 -20 3 -15 14 4 11 2 13 -8 7 -9 -6 -12 -4
-8 6 3 8 1 23 -4 34 -7 18 -8 17 -4 -4 5 -23 5 -23 -25 5 -29 28 -37 40 -19
29 6 -3 10 -1 10 6 0 7 -8 9 -21 6 -15 -4 -18 -2 -10 7 8 10 3 20 -20 39 -18
15 -37 24 -42 20 -6 -3 -7 -2 -4 4 8 12 -37 56 -47 46 -4 -4 -4 0 -1 9 5 13
13 9 40 -20 19 -21 35 -34 35 -31 0 11 -64 74 -90 87 -14 7 -16 10 -5 7 11 -4
16 -3 12 1 -4 4 -1 14 5 23 10 13 10 14 -2 4 -14 -13 -39 -19 -27 -6 12 11
-14 32 -31 26 -15 -6 -15 -5 -3 10 8 10 11 20 7 24 -3 3 -6 1 -6 -5 0 -17 -17
-15 -24 4 -4 10 -2 13 6 8 7 -5 8 -3 3 5 -4 8 -17 10 -34 6 -23 -6 -24 -5 -9
7 13 10 15 17 7 28 -9 13 -10 12 -5 -3 3 -11 2 -16 -4 -12 -6 3 -10 13 -10 21
0 8 -4 14 -10 14 -5 0 -16 13 -25 30 -8 16 -28 36 -43 44 -15 9 -20 16 -12 16
12 0 11 3 -3 11 -10 6 -14 15 -10 22 4 7 -1 6 -10 -2 -15 -12 -17 -12 -11 4 5
12 4 16 -4 11 -9 -5 -25 21 -27 46 -1 13 -11 16 -27 7z m277 -309 c3 -5 1 -10
-4 -10 -6 0 -11 5 -11 10 0 6 2 10 4 10 3 0 8 -4 11 -10z m140 -180 c3 -5 1
-10 -4 -10 -6 0 -11 5 -11 10 0 6 2 10 4 10 3 0 8 -4 11 -10z m132 -149 c0
-11 -5 -18 -9 -15 -4 3 -5 11 -1 19 7 21 12 19 10 -4z m108 -121 c17 -18 17
-20 2 -14 -9 3 -17 10 -17 16 0 5 -5 6 -12 2 -7 -4 -8 -3 -4 4 9 16 10 15 31
-8z m383 -451 c17 -20 20 -29 11 -34 -7 -5 -10 -4 -5 3 3 6 -5 19 -19 30 -13
11 -21 22 -18 26 3 3 7 5 7 4 1 -2 11 -15 24 -29z m57 -59 c3 -5 1 -10 -4 -10
-6 0 -11 5 -11 10 0 6 2 10 4 10 3 0 8 -4 11 -10z m-135 -526 c0 -8 -19 -13
-24 -6 -3 5 1 9 9 9 8 0 15 -2 15 -3z m-236 -285 c-3 -5 -10 -7 -15 -3 -5 3
-7 10 -3 15 3 5 10 7 15 3 5 -3 7 -10 3 -15z m-379 -438 c-3 -6 -11 -11 -16
-11 -5 0 -4 6 3 14 14 16 24 13 13 -3z m-201 -230 c3 -4 -3 -16 -13 -25 -15
-14 -21 -15 -27 -4 -4 7 -4 10 1 6 10 -10 37 11 29 23 -3 5 -3 9 0 9 3 0 7 -4
10 -9z"/>
<path d="M1268 4983 c7 -3 16 -2 19 1 4 3 -2 6 -13 5 -11 0 -14 -3 -6 -6z"/>
<path d="M3505 4760 c-3 -5 -1 -10 4 -10 6 0 11 5 11 10 0 6 -2 10 -4 10 -3 0
-8 -4 -11 -10z"/>
<path d="M920 4721 c0 -6 4 -13 10 -16 6 -3 7 1 4 9 -7 18 -14 21 -14 7z"/>
<path d="M1681 4634 c0 -11 3 -14 6 -6 3 7 2 16 -1 19 -3 4 -6 -2 -5 -13z"/>
<path d="M3365 4580 c-3 -6 1 -7 9 -4 18 7 21 14 7 14 -6 0 -13 -4 -16 -10z"/>
<path d="M4335 4530 c3 -5 8 -10 11 -10 2 0 4 5 4 10 0 6 -5 10 -11 10 -5 0
-7 -4 -4 -10z"/>
<path d="M1875 4409 c-4 -6 -5 -12 -2 -15 2 -3 7 2 10 11 7 17 1 20 -8 4z"/>
<path d="M3189 4370 c-13 -10 -20 -19 -16 -20 4 0 17 9 29 20 28 26 17 26 -13
0z"/>
<path d="M576 4308 c3 -5 10 -6 15 -3 13 9 11 12 -6 12 -8 0 -12 -4 -9 -9z"/>
<path d="M2013 4251 c0 -11 5 -18 9 -15 4 3 5 11 1 19 -7 21 -12 19 -10 -4z"/>
<path d="M423 4128 c1 -7 -4 -12 -11 -10 -8 1 -11 -2 -7 -8 5 -8 11 -8 21 1 7
6 11 15 8 20 -8 13 -14 11 -11 -3z"/>
<path d="M2946 4078 c3 -5 10 -6 15 -3 13 9 11 12 -6 12 -8 0 -12 -4 -9 -9z"/>
<path d="M322 4005 c-7 -8 -9 -15 -4 -15 5 0 15 7 22 15 16 19 -1 19 -18 0z"/>
<path d="M0 3609 c0 -5 5 -7 10 -4 5 3 10 8 10 11 0 2 -4 4 -10 4 -5 0 -10 -5
-10 -11z"/>
<path d="M2395 3470 c-3 -6 1 -7 9 -4 18 7 21 14 7 14 -6 0 -13 -4 -16 -10z"/>
<path d="M2357 3423 c7 -2 9 -12 6 -21 -6 -18 -5 -17 14 8 10 13 8 16 -10 17
-12 0 -17 -1 -10 -4z"/>
<path d="M2303 3345 c0 -8 4 -12 9 -9 5 3 6 10 3 15 -9 13 -12 11 -12 -6z"/>
<path d="M1940 2920 c-8 -5 -10 -10 -5 -10 6 0 17 5 25 10 8 5 11 10 5 10 -5
0 -17 -5 -25 -10z"/>
<path d="M1070 2365 c0 -8 4 -15 8 -15 5 0 9 7 9 15 0 8 -4 15 -9 15 -4 0 -8
-7 -8 -15z"/>
<path d="M1297 2184 c-3 -4 -2 -15 4 -26 8 -14 7 -24 -3 -36 -9 -11 -10 -14 0
-8 7 4 12 2 12 -6 0 -10 3 -9 9 1 6 10 5 24 -4 42 -8 14 -11 29 -8 33 4 3 4 6
1 6 -2 0 -8 -3 -11 -6z"/>
<path d="M3789 2168 c-8 -20 -3 -55 7 -55 10 0 11 4 3 14 -9 10 -8 13 2 13 12
0 12 2 0 9 -11 7 -11 9 0 14 10 4 10 6 2 6 -7 1 -13 0 -14 -1z"/>
<path d="M1490 2112 c9 -17 15 -21 24 -13 7 6 17 7 21 3 5 -4 5 -1 0 6 -5 10
-10 11 -18 3 -7 -7 -14 -5 -24 7 -13 15 -13 14 -3 -6z"/>
<path d="M1955 2120 c3 -5 8 -10 11 -10 2 0 4 5 4 10 0 6 -5 10 -11 10 -5 0
-7 -4 -4 -10z"/>
<path d="M2130 2112 c9 -17 15 -21 24 -13 7 6 17 7 21 3 5 -4 5 -1 0 6 -5 10
-10 11 -18 3 -7 -7 -14 -5 -24 7 -13 15 -13 14 -3 -6z"/>
<path d="M2915 2120 c3 -5 8 -10 11 -10 2 0 4 5 4 10 0 6 -5 10 -11 10 -5 0
-7 -4 -4 -10z"/>
<path d="M3090 2112 c9 -17 15 -21 24 -13 7 6 17 7 21 3 5 -4 5 -1 0 6 -5 10
-10 11 -18 3 -7 -7 -14 -5 -24 7 -13 15 -13 14 -3 -6z"/>
<path d="M2710 2116 c0 -2 7 -7 16 -10 8 -3 12 -2 9 4 -6 10 -25 14 -25 6z"/>
<path d="M4452 1513 c8 -11 6 -13 -13 -10 -14 2 -30 -3 -37 -12 -12 -14 -13
-14 -8 2 5 15 2 16 -14 7 -10 -6 -23 -10 -27 -9 -22 4 -32 -2 -27 -16 5 -11 2
-13 -12 -8 -13 5 -15 3 -9 -7 5 -8 4 -11 -1 -7 -6 3 -16 2 -24 -3 -8 -5 -22
-4 -32 1 -10 5 -18 6 -17 2 4 -23 -3 -31 -21 -28 -11 2 -18 0 -15 -4 3 -5 -2
-12 -11 -15 -10 -4 -14 -14 -11 -26 4 -17 2 -18 -14 -9 -15 7 -19 6 -19 -6 0
-8 -5 -15 -11 -15 -5 0 -7 5 -3 12 4 7 3 8 -4 4 -6 -4 -8 -14 -5 -22 4 -10 1
-15 -8 -13 -23 4 -53 -13 -39 -21 9 -6 6 -14 -11 -31 -13 -13 -28 -23 -32 -21
-5 1 -5 -2 -2 -8 11 -18 -4 -60 -21 -60 -8 0 -14 -7 -12 -16 2 -10 -3 -19 -11
-22 -9 -3 -11 0 -6 8 5 9 4 11 -4 6 -9 -6 -9 -11 0 -22 9 -11 9 -14 -1 -14 -9
0 -9 -4 1 -17 9 -10 9 -14 2 -10 -15 9 -35 -26 -27 -47 4 -11 2 -15 -8 -11 -9
4 -15 0 -15 -9 0 -8 5 -13 11 -12 6 2 8 1 3 -1 -4 -3 -5 -9 -2 -13 3 -5 0 -12
-6 -16 -8 -4 -9 -3 -5 4 4 7 2 12 -3 12 -15 0 -14 -13 2 -29 7 -9 7 -11 1 -8
-7 4 -15 0 -18 -9 -3 -8 -2 -12 4 -9 6 3 7 -1 4 -9 -4 -10 -1 -16 7 -16 9 -1
6 -6 -6 -13 -11 -7 -21 -20 -23 -31 -2 -13 1 -16 10 -10 9 6 9 3 -1 -10 -16
-19 -23 -58 -9 -50 4 3 8 -2 8 -11 0 -10 -5 -13 -12 -9 -7 5 -8 3 -3 -6 12
-20 16 -90 4 -90 -6 0 -7 5 -3 12 5 7 3 8 -6 3 -10 -6 -10 -10 2 -19 11 -8 13
-18 7 -33 -5 -14 -4 -25 3 -29 7 -5 8 -2 3 6 -5 8 -4 11 3 6 6 -4 9 -13 6 -21
-4 -8 -11 -12 -17 -8 -6 4 -7 1 -2 -8 5 -7 10 -27 11 -44 1 -16 3 -33 3 -37 1
-4 9 -5 19 -2 9 3 6 -2 -8 -11 -14 -9 -17 -14 -8 -11 10 3 20 1 23 -4 4 -6 2
-10 -2 -10 -15 0 -12 -38 3 -50 7 -7 11 -16 8 -21 -3 -5 0 -9 7 -9 6 0 9 -8 6
-20 -4 -15 0 -20 16 -21 12 0 16 -3 10 -6 -10 -3 -10 -10 -2 -24 6 -11 15 -17
22 -13 7 4 9 4 5 -1 -4 -4 -3 -14 3 -21 7 -8 7 -14 -1 -19 -6 -4 -9 -1 -8 6 2
6 -3 13 -10 15 -7 1 -8 0 -2 -3 5 -2 8 -8 5 -13 -7 -11 45 -51 56 -44 5 3 9 0
9 -5 0 -6 -7 -11 -15 -11 -8 0 -15 -4 -15 -9 0 -5 8 -8 18 -7 10 0 16 -5 14
-13 -2 -9 3 -11 14 -7 15 6 15 4 3 -10 -13 -16 -12 -16 11 -4 14 7 22 9 18 5
-10 -11 11 -47 23 -40 5 4 9 -1 9 -10 0 -10 -5 -13 -12 -9 -7 4 -8 3 -4 -5 6
-9 11 -9 24 1 12 10 14 10 8 1 -4 -9 -1 -13 9 -13 11 0 15 -5 12 -14 -4 -11
-1 -13 11 -9 9 3 14 3 10 -2 -13 -14 24 -34 47 -25 15 6 22 4 22 -5 0 -7 -6
-11 -14 -8 -7 3 -13 1 -13 -5 0 -12 18 -11 39 2 11 7 13 5 8 -7 -4 -11 -2 -14
8 -10 8 3 12 10 8 17 -4 7 -1 7 9 -1 8 -7 17 -11 20 -8 2 3 5 -2 5 -10 0 -11
-4 -12 -13 -4 -8 6 -14 6 -18 0 -4 -5 -3 -11 1 -14 5 -2 79 -4 167 -5 140 -1
157 0 146 13 -11 13 -10 14 5 9 12 -5 16 -4 11 4 -3 6 -1 14 5 18 7 4 9 3 6
-3 -4 -6 0 -13 8 -17 8 -3 17 -1 20 5 4 5 10 7 14 4 5 -2 16 4 26 15 10 11 22
17 28 13 6 -4 7 -1 3 6 -5 8 -2 11 9 9 11 -2 19 4 20 15 2 9 -1 15 -6 11 -5
-3 -6 -10 -3 -16 4 -7 2 -8 -5 -4 -20 13 7 38 29 26 21 -11 31 -4 23 18 -4 10
-2 13 5 8 7 -4 12 -2 12 5 0 8 5 7 18 -2 15 -13 16 -12 3 4 -8 10 -20 16 -28
13 -8 -4 -11 -1 -8 5 4 6 13 8 21 5 8 -3 14 -1 14 5 0 6 5 7 11 3 8 -4 9 1 4
17 -6 21 -5 22 6 9 8 -8 13 -13 12 -11 -6 11 40 60 50 54 7 -3 3 4 -8 17 -11
13 -14 20 -6 15 11 -6 13 -4 8 8 -4 12 -2 14 11 10 15 -6 15 -5 3 11 -9 11
-18 13 -24 7 -5 -5 -16 -7 -23 -4 -8 3 -14 1 -14 -5 0 -6 5 -12 12 -14 7 -3 6
-7 -5 -11 -10 -4 -17 -2 -17 5 0 7 -6 3 -14 -7 -11 -15 -11 -25 -4 -40 l11
-20 -23 20 c-13 11 -20 15 -17 8 4 -6 0 -19 -9 -27 -8 -9 -12 -16 -7 -16 5 0
14 5 19 10 7 7 11 7 11 -3 0 -17 -39 -20 -50 -4 -6 8 -7 6 -3 -5 9 -28 13 -44
9 -35 -3 4 -10 4 -15 1 -7 -4 -8 -2 -4 4 5 8 2 10 -8 6 -9 -3 -16 -10 -16 -16
0 -5 -4 -7 -9 -4 -5 3 -14 -1 -21 -9 -7 -8 -17 -12 -23 -8 -6 3 -7 1 -3 -6 4
-6 11 -9 16 -6 5 3 11 1 14 -4 9 -15 -38 -7 -52 9 -11 13 -11 13 -7 0 3 -9 -2
-24 -10 -35 -16 -19 -16 -19 -5 3 7 15 7 22 0 22 -5 0 -10 -4 -10 -10 0 -5 -7
-6 -17 -3 -12 5 -14 3 -9 -8 4 -8 -3 -3 -15 11 -15 17 -20 19 -16 8 5 -13 1
-18 -11 -18 -10 0 -29 -7 -42 -16 -22 -14 -22 -12 3 10 15 14 24 26 18 26 -5
0 -12 -4 -15 -9 -3 -5 -15 -7 -26 -4 -11 3 -17 10 -13 17 4 6 -1 5 -11 -3 -15
-13 -19 -13 -27 0 -8 10 -9 8 -4 -8 4 -15 2 -23 -6 -23 -7 0 -9 3 -6 7 11 10
-14 34 -27 26 -16 -11 -30 -10 -38 2 -4 5 -11 10 -15 11 -19 2 -43 17 -43 27
0 5 9 2 20 -8 19 -17 20 -17 20 -1 0 9 -4 15 -9 12 -5 -3 -14 1 -21 9 -9 11
-16 12 -26 4 -10 -8 -12 -6 -9 11 2 13 2 20 -2 16 -3 -3 -13 0 -22 7 -14 11
-14 10 -2 -6 19 -24 10 -28 -11 -5 -10 10 -13 18 -8 18 6 0 10 5 10 11 0 6 -7
8 -16 5 -8 -3 -12 -2 -9 4 3 6 1 10 -4 10 -6 0 -11 5 -11 11 0 5 5 7 12 3 7
-4 8 -3 4 4 -4 6 -14 8 -24 5 -15 -6 -16 -5 -2 12 9 11 10 16 3 11 -7 -4 -14
-2 -14 3 -1 6 -2 15 -3 20 0 5 -5 13 -10 18 -5 4 -6 3 -2 -4 3 -6 1 -15 -5
-19 -7 -4 -9 -3 -5 4 3 6 -2 18 -11 28 -16 16 -16 16 7 10 14 -3 19 -3 12 0
-6 3 -9 10 -6 16 4 7 -2 7 -17 3 -21 -7 -22 -6 -11 8 7 8 9 17 4 19 -5 1 -12
14 -16 28 l-7 25 15 -25 c9 -14 15 -21 16 -17 0 13 -22 51 -34 59 -7 5 -7 8 2
8 10 0 10 4 -2 15 -8 9 -12 23 -9 32 4 9 2 14 -3 10 -6 -3 -11 4 -11 16 -2 15
0 18 6 9 6 -10 10 -9 14 7 3 11 2 20 -2 19 -3 0 -13 0 -21 1 -13 1 -13 2 0 11
21 13 23 53 2 45 -13 -5 -13 -3 -1 11 15 19 21 47 8 38 -9 -5 -14 11 -9 31 1
6 3 15 4 22 1 7 5 16 9 19 13 13 7 27 -6 16 -10 -8 -13 -6 -13 8 0 10 4 16 8
14 4 -3 8 -2 9 3 0 4 2 16 4 26 2 9 0 17 -3 17 -4 0 -7 15 -7 34 0 27 3 32 13
24 9 -8 11 -7 6 7 -4 10 -1 21 7 27 11 8 10 8 -5 4 -14 -5 -17 -3 -11 11 7 18
11 40 14 76 0 9 6 17 12 17 5 0 7 -5 3 -12 -5 -7 -3 -8 5 -3 8 5 9 11 3 17
-11 11 -4 50 8 43 5 -3 6 4 3 15 -3 12 0 20 8 20 8 0 5 6 -7 15 -18 15 -18 15
0 8 16 -5 18 -3 13 16 -5 19 -3 20 10 9 15 -12 15 -10 3 12 -12 23 -12 24 3
11 19 -15 22 -8 7 19 -8 16 -8 18 5 14 18 -7 20 7 3 25 -11 10 -10 12 2 9 8
-2 14 3 13 10 -2 6 2 12 8 12 6 0 8 -9 4 -22 -5 -21 -5 -21 9 2 11 19 11 27 3
33 -7 5 -3 7 11 4 20 -5 21 -3 10 11 -11 13 -11 15 4 9 10 -3 22 1 30 11 7 8
8 13 2 9 -6 -3 -11 0 -11 8 0 10 5 11 17 5 11 -6 21 -5 28 2 17 17 15 28 -5
29 -15 0 -15 2 2 8 11 4 34 7 52 5 18 -1 33 2 33 7 0 4 7 5 17 2 10 -4 14 -2
9 5 -3 6 -1 14 5 18 8 4 9 3 5 -4 -4 -7 -2 -12 4 -12 6 0 8 -5 4 -12 -4 -7 -3
-8 5 -4 6 4 8 13 5 19 -5 9 -4 9 6 0 17 -15 44 -5 30 12 -7 8 -5 12 5 12 8 0
12 -4 9 -9 -3 -4 0 -8 6 -8 6 0 8 -5 4 -12 -5 -9 -3 -9 9 1 9 7 14 18 10 25
-3 6 3 3 14 -7 11 -9 24 -14 28 -10 5 5 3 -1 -5 -12 -15 -19 -14 -19 12 -2 26
16 27 16 47 -9 11 -14 26 -27 33 -28 7 -1 24 -6 37 -10 19 -7 21 -10 10 -18
-11 -8 -10 -8 4 -4 11 3 24 3 30 -1 7 -4 15 -8 20 -9 4 -1 9 -2 12 -3 3 0 1
-9 -4 -19 -6 -12 -6 -23 1 -33 8 -11 9 -10 4 4 -3 11 -2 16 4 12 6 -3 10 -13
10 -21 0 -8 4 -13 9 -10 10 7 24 -22 16 -34 -3 -4 3 -14 13 -21 15 -13 16 -12
4 3 -10 12 -10 18 -1 24 7 4 9 3 5 -4 -3 -6 -2 -13 4 -17 7 -4 7 -12 0 -25 -9
-16 -8 -18 6 -13 14 5 15 3 4 -18 -13 -23 -12 -23 6 -7 19 16 20 16 20 -2 0
-10 -4 -16 -8 -14 -4 3 -8 0 -8 -5 0 -6 5 -11 11 -11 8 0 8 -5 -1 -15 -12 -14
-7 -19 13 -16 5 1 5 -9 1 -21 -6 -20 -5 -21 9 -9 13 10 14 18 7 32 -8 14 -7
17 3 13 17 -6 16 -52 -1 -62 -8 -5 -5 -12 9 -21 16 -9 19 -10 13 0 -5 9 -2 10
10 6 12 -5 15 -3 9 6 -4 6 -7 30 -8 52 0 32 -4 40 -17 39 -10 -1 -15 2 -12 7
3 5 12 8 19 7 8 -2 13 2 12 7 -1 6 -6 9 -11 7 -5 -2 -3 5 5 14 12 16 12 17 -3
11 -12 -4 -15 -2 -11 8 3 8 9 12 14 9 5 -3 9 0 9 5 0 6 -4 11 -10 11 -5 0 -6
7 -3 17 5 12 3 14 -7 8 -10 -6 -11 -4 -4 6 4 8 10 23 11 34 3 16 1 17 -7 5 -6
-9 -10 -10 -10 -3 0 6 4 14 9 17 5 3 7 19 5 36 -2 20 0 29 7 24 6 -3 5 3 -2
14 -7 12 -15 19 -19 17 -3 -2 -5 8 -5 21 0 13 4 24 9 24 4 0 -2 8 -15 18 -15
13 -19 21 -10 26 7 4 10 2 9 -5 -2 -6 2 -13 7 -15 6 -2 11 4 11 15 0 11 -5 17
-10 14 -5 -4 -7 0 -4 9 4 8 0 15 -8 15 -7 0 -11 -4 -9 -8 3 -4 -2 -10 -11 -13
-9 -4 -14 -13 -10 -21 3 -9 0 -15 -10 -15 -8 0 -12 -5 -9 -11 4 -6 14 -8 22
-5 8 3 11 2 8 -4 -3 -5 -19 -7 -35 -5 -23 3 -28 0 -23 -13 5 -14 3 -15 -8 -4
-7 6 -18 12 -23 12 -6 0 -5 -4 2 -9 11 -7 11 -9 -2 -14 -9 -4 -15 -1 -13 6 1
7 -6 11 -17 9 -17 -3 -18 -1 -7 11 15 18 2 28 -28 22 -20 -4 -21 -2 -9 12 12
15 11 15 -9 4 -15 -7 -23 -8 -23 -1 0 5 -5 10 -11 10 -5 0 -7 -5 -3 -12 5 -7
3 -8 -6 -3 -10 6 -9 11 5 22 23 16 12 17 -18 1 -21 -11 -21 -10 -7 7 10 12 10
16 2 11 -7 -4 -19 -3 -27 4 -10 8 -15 8 -21 -1 -5 -8 -3 -9 6 -4 9 6 11 4 5
-5 -6 -9 -4 -11 5 -5 9 6 11 4 5 -5 -6 -10 -12 -8 -26 9 -16 19 -18 20 -22 4
-4 -15 -5 -16 -6 -2 0 9 -8 20 -17 23 -14 6 -15 4 -4 -9 20 -24 -10 -16 -32 9
-10 11 -18 14 -18 7 0 -7 -5 -9 -12 -5 -7 4 -8 3 -4 -5 4 -6 11 -9 16 -6 5 3
11 2 14 -3 2 -4 -6 -8 -20 -8 -21 0 -28 7 -26 27 1 3 -6 6 -13 6 -11 0 -12 -4
-3 -14z m218 -98 c-12 -14 -7 -19 13 -16 5 1 6 -3 2 -9 -5 -8 -11 -7 -21 1
-11 9 -11 15 -3 25 6 8 14 14 16 14 3 0 0 -7 -7 -15z m-340 -41 c0 -8 -19 -13
-24 -6 -3 5 1 9 9 9 8 0 15 -2 15 -3z m-225 -54 c3 -5 -1 -10 -10 -10 -9 0
-13 5 -10 10 3 6 8 10 10 10 2 0 7 -4 10 -10z m-35 -59 c0 -5 -7 -12 -16 -15
-14 -5 -15 -4 -4 9 14 17 20 19 20 6z m-135 -801 c3 -5 1 -10 -4 -10 -6 0 -11
5 -11 10 0 6 2 10 4 10 3 0 8 -4 11 -10z m929 -211 c-3 -5 -10 -7 -15 -3 -5 3
-7 10 -3 15 3 5 10 7 15 3 5 -3 7 -10 3 -15z m29 -13 c-10 -13 -20 -22 -22
-20 -4 4 29 44 36 44 2 0 -4 -11 -14 -24z m-163 -96 c0 -5 -5 -10 -11 -10 -5
0 -7 5 -4 10 3 6 8 10 11 10 2 0 4 -4 4 -10z m61 -17 c13 -16 12 -17 -3 -4
-10 7 -18 15 -18 17 0 8 8 3 21 -13z m-291 -29 c0 -2 -7 -4 -15 -4 -8 0 -15 4
-15 10 0 5 7 7 15 4 8 -4 15 -8 15 -10z m-278 -18 c7 4 8 2 4 -5 -9 -13 -26
-5 -25 12 0 9 2 8 6 -1 2 -6 10 -9 15 -6z m373 4 c3 -6 -1 -7 -9 -4 -18 7 -21
14 -7 14 6 0 13 -4 16 -10z m95 -9 c7 -15 7 -22 -2 -27 -7 -4 -10 -4 -6 1 4 4
3 16 -3 26 -5 11 -7 19 -5 19 3 0 10 -9 16 -19z m-25 -20 c3 -5 2 -12 -3 -15
-5 -3 -9 1 -9 9 0 17 3 19 12 6z m-100 -31 c3 -5 1 -10 -4 -10 -6 0 -11 5 -11
10 0 6 2 10 4 10 3 0 8 -4 11 -10z"/>
<path d="M2038 1512 c-10 -2 -18 -8 -18 -13 0 -6 9 -5 23 1 21 11 21 11 2 -5
-16 -13 -22 -13 -30 -3 -12 15 -48 20 -38 5 4 -6 -4 -8 -20 -5 -21 4 -25 1
-22 -14 2 -10 0 -16 -5 -13 -5 3 -16 -5 -24 -17 -10 -13 -16 -17 -16 -8 0 9
-7 7 -23 -8 -13 -12 -29 -22 -36 -22 -11 0 -11 -3 0 -17 13 -15 12 -15 -8 -5
-20 11 -21 10 -18 -9 4 -18 2 -19 -12 -7 -15 12 -15 11 -4 -11 7 -13 9 -21 4
-18 -5 3 -15 2 -23 -4 -12 -7 -12 -9 3 -9 10 0 15 -5 12 -10 -4 -6 -11 -7 -17
-4 -7 5 -9 1 -5 -9 3 -9 1 -19 -5 -23 -6 -4 -8 -3 -4 4 3 6 1 14 -6 18 -7 4
-10 4 -6 -1 4 -4 2 -17 -4 -28 -9 -17 -8 -19 7 -13 15 5 16 4 5 -9 -7 -8 -16
-12 -21 -9 -5 3 -4 -7 1 -22 8 -21 8 -25 -3 -21 -8 3 -14 -1 -14 -9 0 -7 4
-11 9 -8 4 3 8 0 8 -5 0 -6 -5 -11 -10 -11 -6 0 -8 -11 -6 -25 3 -15 0 -25 -7
-25 -7 0 -6 -4 3 -10 8 -5 11 -10 6 -10 -5 0 -2 -7 5 -16 7 -9 12 -31 11 -48
-2 -24 0 -28 7 -16 6 8 11 10 11 4 0 -5 -5 -15 -12 -22 -7 -7 -8 -12 -2 -12 6
0 11 -7 12 -15 1 -8 3 -22 4 -30 1 -8 5 -12 9 -9 5 2 6 12 3 22 -4 12 -3 13 3
5 5 -7 8 -27 7 -44 -2 -30 -2 -30 19 -12 19 16 20 16 8 1 -9 -12 -10 -18 -2
-18 6 0 11 -5 11 -11 0 -5 -6 -7 -12 -3 -7 3 -1 -5 14 -20 15 -14 31 -26 35
-26 4 1 -3 10 -16 20 -13 11 -19 20 -14 20 6 0 17 -8 26 -18 13 -15 14 -21 4
-31 -9 -10 -8 -11 6 -6 9 4 17 3 17 -3 0 -6 10 -8 23 -6 12 2 16 2 10 -2 -14
-6 -18 -25 -5 -23 20 3 32 -2 32 -16 0 -8 5 -15 11 -15 5 0 7 -4 4 -10 -3 -5
0 -7 8 -4 8 3 18 1 21 -5 4 -6 14 -7 24 -4 15 6 15 5 3 -11 -8 -9 -10 -16 -5
-15 14 4 54 -11 54 -21 0 -5 9 -12 20 -15 11 -3 20 -14 20 -23 0 -15 2 -15 10
-2 6 10 10 11 10 3 0 -7 6 -13 13 -13 6 0 21 -8 32 -17 16 -13 17 -14 3 -9
-10 3 -26 9 -35 12 -15 5 -14 4 2 -9 11 -9 31 -17 44 -17 16 0 21 -4 18 -15
-4 -8 -1 -17 5 -21 7 -4 8 -3 4 4 -4 7 -1 12 6 12 15 -1 57 -30 42 -30 -6 0
-16 6 -23 12 -10 11 -11 10 -6 -5 6 -15 31 -23 58 -18 5 1 6 -3 3 -8 -4 -5 3
-12 14 -16 11 -3 20 -13 20 -21 0 -8 5 -14 11 -14 8 0 8 -4 0 -14 -9 -10 -7
-17 6 -27 17 -13 17 -13 3 6 -14 20 -14 20 7 1 19 -16 23 -36 7 -36 -3 0 -2 5
2 12 4 7 3 8 -5 4 -15 -10 -4 -26 17 -26 15 0 15 -2 2 -10 -12 -8 -13 -13 -3
-29 6 -10 9 -22 5 -25 -10 -11 -11 -36 0 -36 5 0 2 -7 -6 -16 -21 -21 -20 -30
2 -13 15 12 15 12 5 -1 -11 -15 -13 -20 -13 -41 0 -5 -3 -8 -7 -6 -5 3 -17 -7
-28 -22 -12 -16 -13 -21 -3 -13 13 11 15 9 10 -15 -3 -16 -7 -22 -10 -15 -3 9
-7 10 -17 2 -11 -9 -12 -6 -9 12 l5 23 -11 -23 c-5 -13 -7 -29 -3 -35 4 -7 0
-6 -10 1 -14 12 -16 11 -12 -7 2 -14 -1 -18 -11 -14 -7 3 -11 10 -7 17 4 7 1
7 -9 -1 -8 -7 -19 -9 -24 -5 -4 4 -2 -1 5 -11 12 -15 12 -17 -5 -10 -17 6 -18
5 -4 -13 14 -19 14 -19 -8 0 -12 11 -22 14 -22 8 0 -7 -5 -12 -11 -12 -5 0 -8
3 -6 8 3 4 -5 7 -18 7 -12 0 -22 -4 -20 -10 1 -5 0 -7 -2 -2 -7 12 -58 8 -72
-5 -10 -11 -12 -10 -9 2 2 8 -3 14 -11 12 -8 -2 -11 3 -8 13 4 8 3 15 -1 16
-4 0 -17 2 -30 5 -13 2 -21 0 -18 -4 3 -5 -1 -9 -7 -9 -7 0 -13 12 -12 26 0
14 -5 26 -11 26 -7 0 -22 11 -34 25 -12 14 -19 20 -16 13 4 -6 2 -15 -4 -18
-6 -4 -10 -3 -9 2 4 21 -2 34 -13 28 -7 -4 -4 1 6 9 11 9 14 16 7 16 -7 0 -9
5 -6 10 4 6 3 10 -2 9 -15 -4 -43 13 -37 22 3 5 11 6 17 3 7 -4 1 4 -12 19
-12 14 -20 30 -16 37 3 6 3 10 -2 9 -20 -3 -27 2 -13 11 10 6 11 10 3 10 -7 0
-13 9 -13 19 0 11 -6 22 -12 25 -7 3 -2 4 12 1 24 -5 24 -5 3 6 -12 6 -24 18
-27 26 -3 8 -1 11 4 8 6 -3 10 -1 10 4 0 6 -4 11 -10 11 -5 0 -9 3 -9 8 5 27
-2 35 -15 16 -11 -14 -11 -21 -3 -27 7 -5 3 -7 -11 -4 -12 3 -20 1 -16 -4 3
-5 12 -9 21 -9 13 0 13 -3 3 -15 -7 -8 -17 -12 -24 -8 -7 4 -6 1 1 -9 7 -8 9
-19 5 -23 -4 -5 -1 -5 6 -1 9 6 11 1 8 -18 -3 -14 0 -26 5 -26 6 0 7 -5 4 -10
-4 -6 -12 -7 -18 -3 -7 4 -5 -1 3 -11 16 -21 23 -49 9 -40 -5 3 -7 10 -4 15 3
5 -1 6 -10 2 -9 -3 -13 -9 -8 -12 15 -11 38 -45 26 -37 -8 4 -13 1 -13 -8 0
-9 5 -16 11 -16 5 0 7 -5 4 -10 -4 -6 -11 -8 -16 -5 -5 3 -6 -1 -3 -9 3 -9 11
-13 18 -9 6 3 6 1 -1 -8 -15 -15 -18 -53 -4 -45 10 7 9 -20 -2 -30 -4 -4 -2
-13 4 -20 7 -8 6 -14 -2 -20 -8 -5 -9 -3 -4 6 6 9 4 11 -5 5 -11 -7 -10 -10 1
-19 15 -12 22 -49 8 -40 -5 3 -9 1 -9 -4 0 -6 7 -13 16 -16 24 -9 27 -8 20 10
-6 15 -4 15 11 3 11 -10 14 -10 9 -1 -4 7 1 23 13 38 11 15 18 31 14 37 -3 6
-1 7 5 3 7 -4 12 -13 12 -20 0 -7 6 -13 14 -13 9 0 12 6 8 16 -5 14 -3 14 11
2 9 -7 14 -18 10 -24 -3 -6 -1 -7 5 -3 6 4 10 12 8 19 -1 7 -1 9 1 4 3 -4 8
-5 12 -3 4 3 8 -1 8 -9 0 -8 -4 -15 -9 -15 -5 0 -6 -5 -3 -11 5 -6 12 -4 22 8
8 10 12 13 9 7 -3 -7 0 -12 7 -11 32 1 46 -4 43 -16 -1 -6 -1 -9 1 -4 3 4 12
7 21 7 15 0 15 -2 2 -10 -8 -5 -10 -10 -4 -10 5 0 16 6 23 13 11 10 13 9 8 -5
-8 -23 2 -23 18 -1 9 13 14 13 20 3 5 -9 4 -11 -3 -6 -7 4 -12 3 -12 -3 0 -14
221 -12 238 1 10 9 10 14 0 27 -7 9 -8 13 -4 9 5 -4 15 -3 23 4 11 9 12 7 7
-8 -5 -18 -5 -18 9 -1 8 10 24 19 35 20 17 1 19 4 9 16 -10 12 -9 13 2 6 11
-6 13 -3 8 14 -4 18 -3 20 9 10 7 -6 11 -16 7 -22 -4 -6 -1 -7 6 -3 7 5 10 14
7 22 -3 7 -1 16 4 19 4 3 11 -1 13 -7 3 -7 6 -3 6 9 1 12 6 25 13 29 7 5 8 3
3 -6 -5 -9 -4 -11 4 -6 9 6 9 11 -1 24 -11 13 -11 14 1 7 11 -6 13 -4 7 10 -5
15 -4 16 9 5 13 -11 16 -11 13 1 -2 8 3 13 10 11 10 -2 11 2 4 15 -8 13 -6 21
6 31 16 13 16 13 -1 8 -14 -5 -16 -2 -8 13 6 10 7 22 3 26 -4 5 -1 5 6 1 7 -4
10 -12 7 -17 -3 -5 1 -6 10 -2 12 4 13 8 5 13 -7 5 -9 13 -5 20 5 8 4 11 -2 7
-5 -3 -10 0 -10 7 0 9 7 12 16 8 14 -5 14 -4 1 13 -8 10 -10 16 -3 12 6 -4 15
-3 18 3 4 6 3 10 -2 9 -20 -3 -25 2 -13 16 7 8 9 15 5 15 -4 0 -2 7 5 15 11
13 10 14 -4 9 -9 -3 -16 -1 -16 5 0 6 5 11 11 11 6 0 3 7 -5 16 -9 8 -16 20
-16 27 0 6 6 3 13 -7 12 -16 13 -16 13 3 0 11 -4 17 -8 15 -4 -3 -8 0 -8 6 0
6 -5 8 -11 4 -8 -5 -8 -1 0 14 14 26 14 32 0 32 -5 0 -7 -5 -3 -12 4 -7 3 -8
-4 -4 -16 9 -15 11 5 32 16 16 16 16 -5 10 -17 -6 -22 -3 -22 9 0 10 5 13 13
9 6 -4 4 2 -5 13 -10 11 -18 23 -18 27 0 4 -10 20 -22 34 -11 15 -18 19 -15
10 3 -10 2 -20 -4 -23 -5 -4 -9 -3 -8 2 4 25 -2 43 -13 37 -7 -5 -9 -2 -5 9 4
12 2 14 -10 10 -13 -5 -15 -2 -10 16 4 18 3 20 -9 10 -11 -9 -14 -9 -14 1 0
10 -3 10 -14 1 -12 -10 -14 -9 -10 7 3 10 -2 25 -12 33 -11 9 -15 9 -10 2 4
-7 2 -13 -3 -13 -6 0 -11 10 -11 23 0 16 -3 18 -9 9 -7 -12 -12 -12 -30 -1
-11 8 -22 17 -22 21 -1 5 -2 14 -3 21 -1 7 -13 11 -29 10 -15 -1 -25 2 -22 7
4 6 -5 10 -18 10 -14 0 -30 7 -37 15 -7 8 -17 12 -23 8 -6 -4 -7 -1 -3 6 6 9
12 9 25 -3 15 -14 18 -14 18 -1 0 8 -4 12 -8 9 -4 -2 -15 6 -25 18 -11 15 -14
17 -11 6 4 -10 2 -18 -3 -18 -6 0 -10 5 -10 10 0 6 -6 10 -14 10 -8 0 -18 4
-21 10 -4 6 1 7 12 3 15 -6 16 -5 3 9 -14 14 -16 14 -27 -6 -12 -20 -13 -20
-9 6 3 15 0 31 -6 34 -7 4 -8 2 -4 -4 4 -7 1 -12 -9 -12 -11 0 -15 5 -12 15 4
8 2 17 -4 20 -5 4 -6 11 -3 17 4 7 2 8 -5 4 -6 -4 -9 -11 -6 -16 3 -4 -4 -6
-14 -3 -11 3 -22 12 -26 20 -4 12 -2 13 8 5 10 -9 14 -8 14 3 0 7 -3 14 -6 13
-22 -2 -31 4 -25 15 5 8 2 7 -9 -2 -10 -8 -20 -11 -24 -7 -3 3 -1 6 5 6 7 0
12 7 12 15 0 8 -7 15 -16 15 -8 0 -12 5 -9 10 4 6 12 8 18 4 7 -3 3 3 -8 13
-28 25 -53 59 -37 49 12 -7 17 14 13 56 -1 9 3 19 9 23 8 5 8 11 -1 21 -10 12
-9 17 1 27 10 10 11 9 5 -3 -8 -13 -6 -13 8 -1 15 12 15 31 1 31 -3 0 -2 -5 2
-12 4 -7 3 -8 -5 -4 -6 4 -9 12 -5 17 3 5 10 6 16 3 7 -5 9 0 6 14 -4 16 -2
19 10 15 11 -5 13 -3 7 7 -5 8 -4 11 3 6 6 -3 17 1 26 10 11 10 24 13 38 8 21
-6 21 -6 5 10 -21 21 -22 27 -2 20 8 -4 23 0 32 7 9 8 14 9 10 3 -4 -7 0 -15
9 -18 8 -3 12 -2 9 3 -3 5 -1 12 5 16 5 3 10 -2 10 -11 0 -16 1 -16 16 2 8 10
13 13 9 7 -3 -7 -1 -13 5 -13 6 0 8 -5 4 -12 -4 -7 -3 -8 5 -4 6 4 8 12 5 18
-4 6 -1 8 7 6 8 -3 13 -10 12 -15 -1 -5 4 -10 12 -10 7 0 11 6 8 14 -3 7 0 13
6 13 10 0 15 -13 13 -31 -1 -4 8 -5 18 -2 15 4 20 0 20 -13 0 -17 1 -17 13 0
12 16 14 16 31 -2 11 -13 14 -22 6 -27 -5 -3 -8 -11 -4 -16 4 -6 10 -6 19 1 9
8 14 6 19 -6 3 -9 4 -20 1 -24 -3 -5 0 -12 6 -16 8 -4 9 -3 5 4 -5 8 -2 10 9
6 13 -5 13 -9 3 -22 -11 -13 -10 -15 4 -9 12 4 21 -2 32 -25 14 -26 14 -28 1
-18 -13 11 -14 10 -9 -3 3 -8 12 -18 19 -21 15 -5 9 -46 -7 -46 -5 0 -6 -5 -2
-11 4 -8 12 -3 21 12 l14 24 -7 -24 c-5 -18 -3 -22 7 -16 8 5 5 -2 -6 -15 -11
-13 -14 -20 -6 -15 11 6 13 3 9 -13 -4 -12 -1 -20 4 -19 6 1 13 -4 16 -12 2
-8 0 -11 -6 -7 -23 14 -20 -13 3 -28 32 -21 44 -20 42 4 -1 11 -4 20 -8 20
-15 0 -17 29 -3 47 14 17 14 17 5 -4 -8 -15 -7 -22 2 -26 15 -6 15 46 -1 66
-11 14 -12 48 -1 41 5 -2 6 -12 3 -22 -5 -14 -4 -14 4 -3 11 15 5 41 -9 41 -5
0 -9 5 -9 11 0 5 4 8 9 4 5 -3 13 0 17 6 4 7 3 9 -2 6 -6 -3 -16 -2 -24 4 -12
7 -10 9 8 9 12 0 22 4 22 10 0 5 -10 19 -22 31 -13 12 -17 19 -10 15 9 -6 11
-1 8 18 -3 19 0 26 12 27 12 0 10 3 -6 10 -13 5 -20 14 -17 19 4 7 11 8 18 1
9 -7 12 -1 12 19 1 16 -2 27 -6 24 -4 -2 -10 0 -13 5 -3 5 1 12 9 15 12 4 13
10 6 25 -6 10 -7 22 -3 26 4 5 1 5 -5 1 -12 -7 -18 5 -14 27 1 5 -3 6 -9 2 -5
-3 -10 -1 -10 4 0 6 -5 11 -12 11 -9 0 -9 -3 -1 -11 23 -23 -1 -53 -49 -63 -3
0 -10 -5 -15 -10 -4 -5 -3 -6 3 -3 7 4 14 1 17 -6 3 -8 -1 -14 -9 -14 -8 0
-14 4 -14 9 0 4 -7 8 -15 8 -8 0 -15 5 -15 11 0 6 -9 9 -19 6 -14 -3 -18 -1
-14 9 4 12 0 12 -21 4 -18 -6 -25 -6 -21 0 3 6 2 10 -4 10 -6 0 -8 8 -4 18 5
14 3 14 -11 -3 -10 -11 -15 -14 -11 -7 3 6 1 12 -5 12 -6 0 -8 5 -4 12 4 7 3
8 -5 4 -6 -4 -9 -11 -7 -15 3 -4 -1 -8 -9 -8 -8 0 -15 5 -15 10 0 5 -7 7 -15
3 -8 -3 -15 -1 -15 4 0 6 -3 9 -7 9 -5 -1 -10 0 -13 1 -11 4 -46 6 -62 2z m45
-17 c-3 -9 -8 -14 -10 -11 -3 3 -2 9 2 15 9 16 15 13 8 -4z m361 -50 c3 -9 0
-15 -9 -15 -9 0 -12 6 -9 15 4 8 7 15 9 15 2 0 5 -7 9 -15z m-59 -5 c-3 -5
-11 -10 -16 -10 -6 0 -7 5 -4 10 3 6 11 10 16 10 6 0 7 -4 4 -10z m60 -58 c-3
-3 -11 0 -18 7 -9 10 -8 11 6 5 10 -3 15 -9 12 -12z m-568 -128 c-3 -3 -12 -4
-19 -1 -8 3 -5 6 6 6 11 1 17 -2 13 -5z m568 -4 c3 -6 -1 -7 -9 -4 -18 7 -21
14 -7 14 6 0 13 -4 16 -10z m-582 -35 c4 -8 3 -16 -1 -19 -4 -3 -9 4 -9 15 -2
23 3 25 10 4z m-118 -55 c-3 -5 -12 -10 -18 -10 -7 0 -6 4 3 10 19 12 23 12
15 0z m688 -124 c4 -10 1 -13 -8 -9 -8 3 -12 9 -9 14 7 12 11 11 17 -5z m-218
-195 c-9 -8 -36 -10 -30 -2 2 4 11 8 20 8 8 0 13 -3 10 -6z m-250 -89 c-3 -3
-11 0 -18 7 -9 10 -8 11 6 5 10 -3 15 -9 12 -12z m485 -111 c0 -4 -6 -8 -14
-8 -8 0 -12 6 -9 14 5 13 23 9 23 -6z m15 -30 c3 -5 2 -12 -3 -15 -5 -3 -9 1
-9 9 0 17 3 19 12 6z m-715 -191 c0 -5 -5 -10 -11 -10 -5 0 -7 5 -4 10 3 6 8
10 11 10 2 0 4 -4 4 -10z m74 -118 c3 -5 -1 -9 -9 -9 -8 0 -12 4 -9 9 3 4 7 8
9 8 2 0 6 -4 9 -8z m31 -62 c3 -5 1 -10 -4 -10 -6 0 -11 5 -11 10 0 6 2 10 4
10 3 0 8 -4 11 -10z m59 -90 c-6 -5 -24 21 -24 34 0 6 6 1 14 -10 8 -10 12
-21 10 -24z m-114 -84 c0 -2 -6 -9 -13 -15 -10 -8 -14 -7 -14 4 0 8 6 15 14
15 7 0 13 -2 13 -4z m450 -47 c0 -5 -4 -9 -8 -9 -5 0 -9 7 -9 15 0 8 4 12 9 9
4 -3 8 -9 8 -15z m40 7 c0 -11 -19 -15 -25 -6 -3 5 1 10 9 10 9 0 16 -2 16 -4z"/>
<path d="M510 1496 c0 -2 7 -9 15 -16 13 -11 14 -10 9 4 -5 14 -24 23 -24 12z"/>
<path d="M599 1493 c-1 -5 -1 -11 -1 -14 1 -4 -10 -9 -23 -11 -16 -4 -22 -1
-18 6 4 6 1 6 -8 -1 -12 -10 -20 -9 -39 4 -13 9 -20 12 -17 6 4 -6 -3 -10 -18
-10 -14 0 -23 3 -20 7 2 3 -2 7 -10 7 -10 0 -11 -5 -4 -19 7 -13 7 -18 -3 -16
-6 2 -12 -1 -13 -7 0 -5 -3 -15 -7 -21 -11 -17 2 -25 22 -14 20 11 30 4 30
-22 0 -16 10 -22 31 -20 5 1 5 -14 0 -88 -1 -13 -2 -13 -11 0 -6 9 -10 10 -10
3 0 -6 4 -14 10 -18 5 -3 7 -12 3 -20 -3 -8 0 -15 7 -15 6 0 8 5 4 12 -5 7 -3
8 6 3 10 -6 9 -11 -5 -22 -13 -8 -14 -13 -5 -13 7 0 10 -3 7 -7 -4 -3 -1 -13
6 -21 8 -11 9 -14 0 -9 -8 5 -11 0 -10 -13 1 -11 6 -20 11 -20 5 0 1 -7 -10
-15 -19 -14 -19 -14 1 -15 l20 -1 -20 -9 c-11 -5 -14 -9 -6 -9 11 -1 11 -4 0
-18 -10 -11 -10 -14 -1 -9 7 4 12 1 12 -9 0 -9 -4 -13 -10 -10 -17 10 -11 -7
8 -22 9 -8 11 -12 5 -8 -7 3 -13 1 -13 -5 0 -6 -5 -8 -12 -4 -7 5 -8 3 -4 -5
5 -7 15 -10 25 -7 12 5 11 2 -3 -9 -11 -8 -14 -15 -8 -15 7 0 12 -5 12 -11 0
-5 -3 -8 -8 -5 -4 2 -8 -9 -8 -25 -1 -16 3 -29 8 -29 5 0 6 -6 1 -12 -12 -21
-12 -68 0 -68 8 0 8 -3 -1 -12 -9 -9 -7 -15 6 -25 9 -8 11 -12 5 -8 -7 3 -13
1 -13 -5 0 -6 -5 -8 -12 -4 -7 5 -8 3 -4 -5 5 -7 15 -10 25 -7 12 5 11 2 -3
-9 -12 -9 -15 -15 -7 -15 11 0 11 -3 0 -17 -10 -11 -10 -14 -1 -9 7 4 12 1 12
-9 0 -9 -4 -13 -10 -10 -17 10 -11 -7 8 -22 9 -8 11 -12 5 -8 -7 3 -13 1 -13
-5 0 -6 -5 -8 -12 -4 -7 4 -8 3 -4 -4 4 -7 15 -12 24 -13 14 0 13 -2 -3 -9
-11 -5 -14 -9 -6 -9 11 -1 11 -4 0 -18 -10 -11 -10 -14 -1 -9 7 4 12 1 12 -9
0 -9 -4 -13 -10 -10 -17 10 -11 -7 8 -22 9 -8 11 -12 5 -8 -7 3 -13 1 -13 -5
0 -6 -5 -8 -12 -4 -7 5 -8 3 -4 -5 5 -7 15 -10 25 -7 12 5 11 2 -3 -9 -11 -8
-14 -15 -8 -15 7 0 12 -5 12 -11 0 -5 -3 -8 -8 -5 -4 2 -8 -9 -8 -25 -1 -16 3
-29 8 -29 5 0 6 -6 1 -12 -12 -20 -13 -68 -1 -68 6 0 8 -3 5 -7 -4 -3 -2 -12
5 -20 9 -11 8 -13 -3 -11 -8 2 -17 8 -21 13 -5 6 -8 5 -8 -2 0 -7 10 -18 22
-24 21 -11 21 -12 3 -25 -10 -8 -13 -14 -7 -14 7 0 12 -4 12 -10 0 -5 -6 -7
-14 -4 -8 3 -17 1 -20 -4 -3 -5 2 -9 12 -8 24 2 23 -32 -2 -68 -11 -16 -15
-27 -10 -23 6 3 11 0 11 -8 0 -8 -4 -12 -9 -9 -4 3 -8 0 -8 -6 0 -6 -4 -9 -9
-6 -5 3 -15 -2 -22 -11 -12 -14 -11 -15 11 -8 14 4 22 4 18 0 -4 -4 -19 -9
-33 -11 -21 -2 -25 1 -21 14 4 9 -3 6 -13 -8 l-20 -25 -10 25 c-7 19 -10 21
-10 6 -1 -11 -6 -16 -15 -13 -9 4 -13 0 -11 -11 2 -9 4 -20 4 -23 1 -4 10 -9
20 -12 14 -3 18 -1 14 9 -3 8 -9 12 -13 9 -5 -3 -11 -1 -15 4 -3 6 4 8 17 6
13 -3 24 -9 26 -15 5 -14 32 -12 32 3 0 9 2 9 9 -1 4 -8 22 -15 39 -16 21 -1
28 1 22 8 -5 7 0 12 16 12 13 1 24 -2 24 -8 0 -5 -4 -7 -8 -4 -5 3 -9 -1 -9
-9 0 -21 10 -19 25 5 14 23 32 26 32 6 0 -9 11 -13 34 -12 22 1 31 5 26 11 -6
7 -2 11 11 11 12 0 18 -5 15 -13 -3 -7 -1 -13 4 -13 6 0 10 8 10 18 0 13 2 14
9 3 5 -7 28 -14 52 -15 24 -2 38 -1 31 2 -7 2 -10 8 -6 13 3 5 0 9 -7 9 -7 0
-9 3 -6 7 4 3 19 -4 34 -18 14 -13 23 -18 19 -11 -4 6 -3 12 3 12 5 0 11 -3
14 -7 2 -5 2 -2 1 5 -2 7 6 12 19 12 20 1 20 2 4 11 -9 6 -15 14 -12 19 3 5 1
11 -4 15 -6 3 -8 -3 -6 -14 2 -14 -1 -18 -11 -14 -7 3 -12 9 -9 13 6 10 -15 7
-34 -4 -10 -7 -12 -6 -6 4 6 10 4 12 -8 7 -9 -3 -19 -2 -22 4 -4 5 -10 7 -15
4 -5 -3 -7 9 -5 26 4 28 3 29 -12 17 -12 -9 -15 -9 -9 0 4 7 2 12 -5 12 -7 0
-4 6 7 14 18 14 18 15 2 21 -10 4 -18 11 -18 17 0 5 4 7 8 4 5 -3 9 1 9 9 0 8
-4 12 -9 9 -4 -3 -8 5 -8 18 0 13 -6 30 -12 38 -7 8 -2 6 12 -5 l24 -20 -18
29 c-16 24 -16 28 -3 23 11 -4 14 -2 11 8 -3 8 -13 11 -22 8 -11 -3 -13 -2 -6
4 6 4 10 18 9 30 -1 16 2 20 10 13 8 -7 11 -4 10 8 -2 26 -15 43 -27 36 -7 -5
-8 -2 -4 5 5 7 15 10 24 6 14 -5 14 -4 -1 12 -10 12 -13 23 -7 33 10 16 3 33
-11 25 -18 -12 -9 7 14 26 l22 20 -25 -6 c-14 -4 -20 -3 -15 2 6 4 11 13 12
18 1 6 5 18 8 28 6 14 3 16 -11 11 -14 -4 -15 -3 -6 3 8 6 11 21 8 37 -3 14
-1 24 4 21 5 -3 11 -1 15 5 3 5 1 10 -4 10 -30 0 -2 40 31 44 3 1 10 5 15 10
4 5 3 6 -4 2 -6 -3 -14 -2 -17 3 -7 11 13 9 34 -4 19 -12 70 -14 70 -2 0 5 -7
6 -16 3 -8 -3 -12 -2 -9 3 6 10 44 11 43 1 -2 -19 4 -19 20 0 14 18 19 19 19
7 0 -9 -5 -13 -11 -10 -6 3 -7 2 -3 -2 12 -14 39 -15 34 -1 -3 8 4 11 22 10
41 -2 43 -3 35 -16 -5 -9 -2 -9 9 1 14 11 20 11 34 0 11 -10 14 -10 9 -1 -4 6
-2 12 3 12 6 0 11 -6 11 -12 0 -9 3 -10 8 -2 12 18 50 23 71 8 15 -11 22 -11
27 -3 5 8 3 9 -6 4 -8 -5 -11 -4 -7 3 4 5 16 8 27 5 11 -3 17 -10 13 -17 -4
-7 -1 -7 8 1 12 10 18 10 29 0 10 -10 12 -8 6 7 -5 15 -4 17 7 8 8 -7 17 -9
20 -5 4 3 7 1 7 -6 0 -7 5 -9 13 -5 9 6 9 5 0 -7 -10 -12 -10 -18 -1 -27 7 -7
8 -12 2 -12 -5 0 -8 -30 -6 -71 3 -55 1 -69 -9 -64 -8 5 -10 4 -5 -3 4 -6 14
-9 24 -6 13 5 14 4 4 -4 -8 -5 -13 -15 -12 -23 1 -8 2 -40 1 -72 -1 -41 -4
-56 -13 -51 -7 4 -8 3 -4 -4 4 -6 14 -9 24 -6 13 5 14 4 4 -4 -8 -5 -13 -15
-12 -23 5 -33 0 -50 -12 -43 -10 6 -10 5 -1 -8 7 -8 9 -19 5 -23 -4 -5 -2 -5
4 -2 6 3 11 0 11 -8 0 -8 -4 -12 -8 -9 -4 2 -10 0 -14 -6 -3 -5 2 -10 12 -11
17 0 17 -1 1 -12 -15 -10 -15 -12 0 -25 9 -7 11 -10 3 -6 -11 5 -13 3 -8 -9 3
-9 1 -19 -5 -23 -6 -4 -8 -3 -4 4 3 6 2 13 -3 16 -4 3 -8 -2 -8 -12 0 -35 -3
-43 -15 -37 -7 4 -4 -1 7 -10 l20 -17 -20 4 c-11 2 -23 8 -27 13 -5 6 -8 6 -8
-2 0 -7 7 -16 16 -21 11 -6 13 -11 5 -16 -6 -4 -11 -3 -11 2 0 6 -7 13 -16 16
-15 6 -15 4 -3 -10 13 -16 12 -16 -8 -6 -31 17 -40 15 -17 -3 17 -14 18 -15 0
-9 -28 10 -49 -29 -22 -39 10 -4 13 -1 10 7 -3 7 2 13 11 13 9 0 14 -6 11 -14
-3 -7 -1 -13 4 -13 6 0 10 8 10 18 0 14 2 14 9 3 5 -8 21 -15 35 -16 16 0 22
3 16 10 -5 6 1 11 16 11 13 1 24 -2 24 -8 0 -5 -4 -7 -9 -4 -11 7 -8 -21 4
-31 4 -4 5 -3 2 3 -4 6 2 19 13 29 16 15 23 16 33 6 9 -10 8 -11 -8 -5 -11 4
-17 4 -13 0 11 -12 86 -13 81 -1 -5 14 35 17 43 3 4 -6 2 -8 -4 -4 -6 3 -13 3
-16 -2 -2 -4 15 -8 39 -7 30 0 40 3 34 11 -5 7 -3 11 6 11 8 0 15 -4 15 -9 0
-14 21 -9 38 10 10 10 16 16 15 13 -6 -9 20 -31 36 -30 12 0 11 2 -4 9 -14 6
-16 9 -5 10 8 2 17 2 20 2 3 0 6 8 6 18 0 18 -19 21 -33 5 -4 -4 -2 -5 6 0 10
5 12 4 7 -4 -4 -6 -13 -8 -19 -4 -7 4 -16 8 -22 8 -5 1 -9 7 -7 14 1 7 -2 10
-8 6 -6 -3 -8 -10 -5 -15 3 -4 -1 -10 -9 -13 -14 -6 -16 9 -4 29 5 7 -4 10
-27 9 -19 -1 -33 1 -30 3 3 3 -2 14 -12 24 -9 10 -13 18 -8 18 4 0 1 8 -6 17
-10 11 -10 14 -1 9 6 -4 12 -3 12 1 0 5 -6 15 -12 22 -10 11 -10 13 0 7 15 -9
16 6 0 22 -8 8 -8 15 1 26 9 11 9 15 -1 20 -10 5 -10 7 0 12 6 3 12 10 12 15
0 6 -6 7 -12 3 -9 -5 -9 -2 1 9 11 14 11 17 0 17 -11 0 -11 2 1 10 13 9 13 10
0 10 -13 0 -13 1 0 10 12 8 12 10 1 10 -11 0 -11 3 0 17 10 11 10 14 2 9 -7
-4 -13 -3 -13 3 0 5 6 12 13 14 9 4 8 6 -2 6 -11 1 -11 4 0 18 8 9 9 14 4 11
-6 -4 -10 9 -10 32 0 21 3 36 7 34 5 -3 8 0 8 5 0 6 -6 11 -12 12 -7 0 -4 4 7
9 17 7 17 9 3 9 -21 1 -24 17 -5 24 9 4 8 6 -2 6 -11 1 -11 4 0 18 8 9 9 14 2
10 -12 -8 -12 10 0 31 5 7 3 12 -5 12 -9 0 -9 3 2 10 13 9 13 10 0 10 -13 0
-13 1 0 10 12 8 12 10 1 10 -11 0 -11 3 0 17 10 11 10 14 2 9 -7 -4 -13 -3
-13 3 0 5 6 12 13 14 9 4 8 6 -2 6 -11 1 -11 4 0 18 8 9 9 14 4 11 -6 -4 -10
9 -10 32 0 21 3 36 7 34 5 -3 8 0 8 5 0 6 -6 11 -12 12 -7 0 -4 4 7 9 17 7 17
9 3 9 -21 1 -24 17 -5 24 9 4 8 6 -2 6 -11 1 -11 4 0 18 8 9 9 14 2 10 -12 -8
-12 10 0 31 5 7 3 12 -5 12 -9 0 -9 3 2 10 13 9 13 10 0 10 -13 0 -13 1 0 10
12 8 12 10 1 10 -11 0 -11 3 0 17 10 11 10 14 2 9 -7 -4 -13 -3 -13 3 0 5 6
12 13 14 9 4 8 6 -2 6 -11 1 -11 4 0 18 8 9 9 14 4 11 -6 -4 -10 9 -10 32 0
21 3 36 7 34 5 -3 8 0 8 5 0 6 -6 11 -12 12 -7 0 -4 4 7 9 17 7 17 9 3 9 -10
1 -18 6 -18 12 0 5 4 8 8 5 5 -3 9 1 9 9 0 8 -5 15 -11 15 -6 0 -5 5 2 12 16
16 15 31 0 22 -7 -4 -2 5 12 20 14 15 19 26 12 24 -9 -2 -15 8 -17 30 -2 29
-1 31 10 15 12 -16 13 -16 11 9 -3 29 22 57 44 50 8 -3 12 -1 8 3 -4 5 -3 14
3 21 7 8 7 14 -1 19 -5 3 -10 12 -10 18 0 7 7 4 15 -6 7 -11 11 -25 9 -32 -4
-8 1 -13 10 -11 26 4 30 16 10 32 -18 14 -18 15 4 4 17 -8 21 -16 16 -32 -4
-12 -2 -18 4 -14 17 10 20 42 6 61 -8 10 -14 13 -14 7 0 -7 -5 -12 -11 -12 -5
0 -8 4 -5 8 3 4 -19 7 -47 7 -29 -1 -59 3 -67 9 -13 10 -13 9 -1 -7 8 -9 16
-15 19 -12 3 3 11 0 19 -6 10 -9 13 -8 13 1 0 8 3 11 6 7 3 -3 3 -11 -1 -17
-5 -8 -11 -7 -23 2 -14 11 -15 10 -8 -7 7 -18 5 -18 -14 3 -18 19 -40 22 -40
6 0 -3 5 -2 10 1 6 3 10 1 10 -4 0 -14 -17 -14 -25 -1 -5 8 -11 8 -20 0 -15
-13 -24 -3 -20 23 2 9 -1 15 -6 11 -5 -3 -7 -10 -4 -15 4 -5 -6 -9 -20 -9 -18
0 -24 -4 -19 -12 6 -10 5 -10 -7 -1 -12 10 -18 10 -29 0 -10 -9 -11 -9 -6 1 4
6 2 12 -4 12 -6 0 -9 4 -6 8 3 5 -13 8 -35 8 -21 0 -39 -5 -39 -11 0 -5 -5 -3
-10 5 -6 10 -10 11 -10 3 0 -8 -11 -11 -30 -9 -18 2 -35 -3 -42 -12 -9 -11
-10 -14 -1 -9 18 11 35 -26 20 -44 -7 -7 -2 -5 11 5 13 12 22 15 22 7 0 -7 5
-9 10 -6 6 3 10 1 10 -6 0 -7 3 -10 6 -7 3 4 1 15 -4 25 -7 12 -7 25 -1 34 5
7 9 10 9 6 0 -4 10 -3 21 4 13 6 19 7 15 1 -3 -6 0 -13 6 -16 7 -3 2 -3 -11 0
-16 4 -21 2 -17 -5 5 -7 1 -8 -9 -4 -15 5 -15 3 -4 -16 8 -11 21 -21 31 -21 9
0 20 -5 24 -12 5 -7 3 -8 -6 -3 -9 6 -11 4 -6 -4 5 -7 13 -10 20 -8 7 3 11 -7
10 -27 0 -17 3 -35 7 -41 16 -24 16 -64 0 -68 -12 -4 -11 -5 4 -6 13 -1 16 -4
8 -9 -10 -6 -9 -14 3 -37 l15 -29 -22 20 c-22 19 -22 19 -12 -1 16 -31 17
-179 2 -169 -8 4 -10 3 -5 -4 4 -6 14 -9 24 -6 11 4 13 3 5 -3 -7 -5 -11 -34
-10 -81 2 -54 -1 -72 -11 -72 -7 0 -10 -5 -7 -10 4 -6 10 -8 15 -5 5 3 12 0
16 -7 4 -7 4 -10 -1 -6 -4 4 -16 -3 -27 -15 -11 -12 -17 -16 -13 -9 3 7 0 12
-9 12 -8 0 -17 -6 -19 -12 -4 -10 -6 -10 -6 0 -1 6 -8 12 -17 12 -8 0 -12 -4
-9 -10 3 -6 -1 -7 -9 -4 -9 3 -14 9 -12 13 2 3 -33 6 -79 6 -62 0 -81 -3 -78
-12 3 -7 0 -13 -6 -13 -10 0 -15 14 -12 33 1 5 -3 6 -9 2 -6 -3 -8 -10 -5 -15
3 -5 0 -12 -6 -16 -8 -4 -9 -3 -5 4 4 7 1 12 -8 12 -9 0 -16 -6 -16 -12 0 -10
-2 -10 -9 0 -4 7 -20 15 -35 16 -21 3 -26 0 -21 -12 5 -12 1 -12 -15 3 -20 18
-21 18 -34 0 -10 -14 -15 -15 -21 -5 -6 9 -4 11 5 5 8 -5 11 -4 6 3 -4 6 -13
9 -21 6 -8 -4 -12 -10 -9 -15 10 -16 -9 -9 -22 9 -13 16 -13 16 -14 -3 0 -15
-2 -17 -9 -7 -4 8 -12 14 -17 15 -13 3 -20 39 -13 67 2 8 -2 14 -8 12 -19 -3
-16 8 10 29 l22 20 -25 -7 c-24 -6 -24 -5 -6 8 10 8 16 20 12 26 -3 5 -3 12 1
15 5 2 3 3 -2 1 -6 -1 -11 7 -11 17 0 14 3 16 15 6 12 -10 12 -9 1 13 -7 14
-13 27 -13 30 1 3 -3 4 -9 2 -5 -1 -6 2 -3 8 4 6 14 9 23 5 14 -5 14 -4 -1 12
-10 12 -13 23 -7 33 10 16 3 33 -11 25 -18 -12 -9 7 14 26 l22 20 -25 -5 c-14
-3 -19 -3 -12 0 10 5 10 9 1 20 -9 11 -9 14 0 14 7 0 10 4 6 9 -3 5 0 13 6 17
8 5 9 3 4 -6 -5 -9 -4 -11 3 -6 9 5 8 12 -1 27 -10 16 -9 21 3 29 8 5 10 10 4
10 -7 0 -14 7 -17 14 -4 11 -1 13 11 9 9 -3 14 -3 10 2 -4 4 -2 15 5 23 10 13
9 14 -1 8 -10 -6 -13 -3 -10 9 1 10 10 20 18 22 13 4 13 3 0 -6 -12 -8 -11
-10 7 -8 15 1 19 5 13 13 -6 6 -7 14 -3 18 4 4 -1 4 -12 1 -19 -6 -19 -6 -2 5
10 6 25 9 33 6 9 -3 12 -1 9 4 -4 6 3 9 17 6 13 -2 31 1 41 6 13 6 24 5 35 -4
15 -12 16 -11 4 4 -8 10 -22 20 -33 23 -23 7 -25 22 -4 22 8 0 15 -4 15 -9 0
-4 5 -8 11 -8 8 0 9 4 0 13 -6 8 -8 16 -5 20 8 8 -18 3 -34 -6 -7 -5 -14 -2
-18 7 -3 9 -11 16 -16 16 -6 0 -5 -6 2 -15 8 -9 9 -15 2 -15 -6 0 -13 4 -16 8
-3 5 -15 8 -28 7 -13 -1 -30 3 -38 8 -12 9 -13 9 -3 -3 14 -15 32 -21 75 -23
14 -1 24 -5 21 -10 -5 -8 -46 -3 -65 9 -8 5 -9 2 -4 -12 6 -16 4 -16 -14 4
-18 19 -40 22 -40 6 0 -3 5 -2 10 1 6 3 10 1 10 -4 0 -14 -17 -14 -25 -1 -5 8
-11 8 -20 0 -15 -13 -24 -3 -20 23 2 9 1 17 -1 17 -2 0 -5 -3 -5 -7z m611 -28
c0 -8 -2 -15 -4 -15 -2 0 -6 7 -10 15 -3 8 -1 15 4 15 6 0 10 -7 10 -15z
m-107 -15 c4 0 5 6 1 13 -4 6 -3 8 1 4 14 -12 14 -34 0 -34 -7 0 -18 10 -25
21 -10 17 -10 19 1 9 7 -7 17 -13 22 -13z m-296 -17 c-10 -10 -47 -11 -53 -1
-4 6 -2 8 4 4 6 -3 13 -2 17 3 3 6 12 8 21 4 8 -3 13 -7 11 -10z m-296 -166
c-10 -9 -11 -8 -5 6 3 10 9 15 12 12 3 -3 0 -11 -7 -18z m159 -307 c0 -5 -2
-10 -4 -10 -3 0 -8 5 -11 10 -3 6 -1 10 4 10 6 0 11 -4 11 -10z m340 -154 c0
-3 -4 -8 -10 -11 -5 -3 -10 -1 -10 4 0 6 5 11 10 11 6 0 10 -2 10 -4z m80 0
c0 -3 -4 -8 -10 -11 -5 -3 -10 -1 -10 4 0 6 5 11 10 11 6 0 10 -2 10 -4z
m-320 -70 c0 -3 -4 -8 -10 -11 -5 -3 -10 -1 -10 4 0 6 5 11 10 11 6 0 10 -2
10 -4z m-80 -16 c0 -5 -4 -10 -10 -10 -5 0 -10 5 -10 10 0 6 5 10 10 10 6 0
10 -4 10 -10z m775 -630 c-3 -5 -14 -10 -23 -9 -14 0 -13 2 3 9 27 11 27 11
20 0z m-995 -44 c0 -3 -4 -8 -10 -11 -5 -3 -10 -1 -10 4 0 6 5 11 10 11 6 0
10 -2 10 -4z m140 -4 c0 -5 -7 -9 -15 -9 -8 0 -12 4 -9 9 7 10 24 10 24 0z
m100 4 c0 -3 -4 -8 -10 -11 -5 -3 -10 -1 -10 4 0 6 5 11 10 11 6 0 10 -2 10
-4z m480 0 c0 -3 -4 -8 -10 -11 -5 -3 -10 -1 -10 4 0 6 5 11 10 11 6 0 10 -2
10 -4z m240 0 c0 -3 -4 -8 -10 -11 -5 -3 -10 -1 -10 4 0 6 5 11 10 11 6 0 10
-2 10 -4z"/>
<path d="M2755 1490 c-4 -6 -11 -7 -17 -4 -7 4 -8 2 -4 -5 4 -6 13 -8 19 -4 7
4 5 -2 -3 -12 -13 -16 -13 -18 0 -13 8 2 16 14 16 26 1 24 -2 27 -11 12z"/>
<path d="M2839 1488 c-1 -7 -1 -15 -1 -18 0 -3 -11 -5 -24 -5 -13 0 -24 4 -24
10 0 5 -7 -1 -16 -13 -9 -13 -22 -21 -30 -18 -8 3 -14 1 -14 -5 0 -6 -6 -7
-12 -2 -21 13 -36 12 -48 -2 -9 -11 -6 -13 15 -9 19 3 24 1 19 -7 -5 -8 -3 -9
5 -5 7 5 21 0 33 -11 12 -10 18 -12 14 -5 -5 7 -1 12 9 12 11 0 15 -5 12 -14
-3 -8 2 -20 11 -28 15 -12 16 -11 3 5 -7 9 -9 17 -3 17 16 0 22 -26 9 -40 -9
-10 -9 -11 1 -6 6 4 12 2 12 -4 0 -6 5 -8 12 -4 7 4 8 3 4 -5 -4 -6 -11 -9
-16 -6 -5 3 -12 1 -15 -5 -4 -6 -1 -9 6 -8 6 2 14 -3 17 -11 3 -8 0 -11 -7 -7
-7 5 -9 1 -5 -8 3 -9 10 -14 14 -11 5 3 7 -3 5 -12 -2 -10 -4 -22 -4 -26 -1
-5 -6 -5 -12 -1 -6 3 -3 -6 7 -22 14 -21 14 -26 3 -17 -12 10 -15 9 -15 -6 0
-10 5 -17 11 -15 6 3 10 -7 9 -23 0 -15 -6 -29 -12 -31 -8 -2 -10 3 -6 15 5
15 4 15 -5 3 -8 -11 -7 -18 6 -27 9 -7 19 -10 24 -8 4 3 5 -4 2 -15 -3 -11 -9
-20 -12 -20 -4 0 -8 -7 -8 -15 0 -8 3 -15 6 -15 3 0 6 -13 6 -30 1 -31 -4 -36
-21 -22 -5 4 -1 -1 9 -10 14 -13 15 -18 6 -18 -11 0 -11 -2 0 -9 11 -7 9 -10
-10 -14 -21 -4 -22 -4 -3 -6 16 -1 22 -7 20 -25 0 -13 -4 -22 -8 -19 -5 2 -8
-1 -8 -6 0 -6 6 -11 13 -12 6 -1 1 -5 -13 -9 -23 -7 -23 -8 -4 -9 17 -1 22 -7
20 -25 0 -13 -4 -22 -8 -19 -5 2 -8 -1 -8 -6 0 -6 6 -11 13 -12 6 -1 1 -5 -13
-9 -23 -7 -23 -8 -4 -9 17 -1 22 -7 20 -25 0 -13 -4 -22 -8 -19 -5 2 -8 -1 -8
-6 0 -6 6 -11 13 -12 6 -1 1 -5 -13 -9 -23 -7 -23 -8 -4 -9 17 -1 22 -7 20
-25 0 -13 -4 -22 -8 -20 -4 2 -9 0 -13 -6 -5 -9 7 -14 26 -12 4 1 5 -8 2 -18
-3 -11 -9 -20 -12 -20 -4 0 -8 -7 -8 -15 0 -8 3 -15 6 -15 3 0 6 -14 6 -30 1
-31 -4 -36 -21 -22 -5 4 -1 0 8 -10 19 -17 25 -33 9 -24 -5 3 -11 -1 -14 -9
-4 -8 -1 -12 6 -9 8 3 12 -9 13 -36 1 -22 -3 -40 -8 -40 -5 0 -6 6 -2 13 5 8
2 8 -9 -2 -18 -14 -22 -22 -9 -20 28 5 35 -2 16 -16 -19 -15 -19 -15 1 -8 18
6 19 5 5 -12 -8 -10 -10 -16 -4 -12 13 7 14 -87 1 -99 -4 -5 -5 0 -2 11 5 15
4 16 -3 6 -5 -7 -6 -28 -2 -46 6 -26 5 -32 -6 -28 -8 3 -14 1 -14 -5 0 -6 6
-12 13 -15 16 -6 4 -18 -21 -20 -11 0 -18 -5 -16 -9 3 -5 9 -6 13 -4 4 3 8 -1
8 -9 0 -11 -5 -12 -21 -3 -19 10 -19 9 -8 -4 10 -13 10 -18 1 -24 -8 -4 -9 -3
-5 4 4 7 1 12 -8 12 -9 0 -16 -5 -16 -11 0 -5 -4 -8 -9 -4 -17 10 -22 -13 -7
-28 8 -8 12 -18 8 -22 -4 -5 -1 -5 6 -1 7 5 11 15 7 23 -4 12 -3 13 8 5 8 -7
17 -9 20 -5 4 3 7 1 7 -6 0 -7 8 -11 18 -9 9 1 23 -1 30 -5 8 -5 12 -2 12 8 0
9 4 14 10 10 5 -3 6 -13 3 -23 -5 -15 -4 -16 8 -1 16 18 54 34 44 19 -4 -6 5
-9 19 -8 15 1 26 9 27 18 0 10 3 9 8 -5 6 -15 18 -20 49 -20 27 0 38 3 32 10
-6 7 -2 11 11 11 12 0 18 -5 15 -13 -3 -7 -1 -13 4 -13 6 0 10 8 10 18 0 14 2
14 9 3 11 -17 81 -21 74 -5 -2 6 3 11 12 11 9 0 14 -6 11 -14 -3 -7 -1 -13 4
-13 6 0 10 8 10 18 0 14 2 15 10 2 5 -8 19 -15 32 -15 14 0 22 -5 20 -13 -1
-8 2 -11 8 -7 8 5 6 13 -4 24 -14 15 -14 18 -1 18 8 0 15 -5 15 -10 0 -5 7 -3
16 4 15 12 16 11 10 -11 -7 -24 -6 -24 8 -6 9 10 13 23 10 27 -3 5 0 9 7 9 7
0 9 -9 6 -23 -6 -21 -6 -21 8 -3 8 11 15 14 15 8 0 -7 5 -12 11 -12 5 0 7 6 3
13 -5 7 0 6 11 -3 17 -13 18 -13 13 1 -5 13 -2 16 13 12 10 -3 16 -10 12 -16
-3 -6 -1 -7 5 -3 7 4 12 14 12 22 0 17 12 18 27 3 8 -8 13 -7 18 2 6 8 4 10
-5 4 -9 -5 -11 -4 -6 4 4 6 13 8 19 4 18 -11 38 -12 31 -2 -3 5 -10 6 -16 3
-7 -4 -8 -2 -4 5 4 6 11 9 16 6 5 -3 14 3 20 12 9 15 10 14 5 -7 -4 -17 -3
-21 3 -11 6 8 15 10 23 5 12 -6 12 -5 1 8 -10 13 -9 18 5 29 9 8 14 9 10 2 -4
-6 -2 -15 4 -19 8 -4 9 -3 5 4 -4 7 0 12 11 13 10 0 13 3 6 6 -7 2 -13 10 -13
15 0 6 3 8 7 5 3 -4 12 1 19 11 12 15 15 15 25 2 9 -13 10 -12 5 2 -3 10 1 21
11 26 11 6 12 11 4 16 -6 4 -11 2 -11 -3 0 -6 -8 -11 -17 -11 -15 0 -15 2 2
14 10 7 28 11 39 9 18 -4 19 -3 6 7 -11 9 -12 13 -2 17 6 2 12 11 12 19 0 9
-5 12 -12 8 -7 -4 -8 -3 -4 5 4 6 12 8 18 5 7 -5 9 -1 5 9 -3 9 -1 19 5 23 6
4 8 3 4 -4 -3 -6 -2 -13 3 -17 6 -3 8 5 5 20 -3 16 0 25 8 25 8 0 9 3 3 8 -19
13 -17 35 2 28 17 -6 17 -5 1 7 -15 12 -15 14 0 24 16 11 15 12 -2 12 -18 1
-18 2 -1 21 16 18 16 20 2 26 -13 5 -14 10 -6 25 7 14 6 19 -3 19 -9 0 -9 3 2
10 13 9 13 10 0 10 -13 0 -13 1 0 10 13 9 8 14 -12 12 -3 -1 -12 6 -20 16 -11
15 -11 16 3 5 25 -20 31 -3 6 19 -12 11 -16 17 -9 13 6 -3 12 -1 12 4 0 6 -5
11 -11 11 -5 0 -7 5 -3 12 5 7 2 9 -8 5 -22 -8 -30 3 -15 21 10 13 9 15 -5 10
-11 -5 -20 2 -28 23 -11 26 -23 33 -57 32 -6 0 -9 6 -6 13 4 10 0 12 -13 7
-13 -5 -15 -3 -9 8 8 12 6 12 -8 0 -13 -10 -17 -10 -17 -1 0 10 -3 10 -14 1
-14 -12 -15 -10 -7 28 1 2 7 -2 15 -8 11 -9 16 -9 22 0 4 7 3 9 -4 5 -6 -3
-14 -1 -17 5 -4 5 -14 8 -23 4 -13 -5 -12 -2 3 15 19 21 31 27 20 11 -3 -5 0
-13 6 -17 8 -4 9 -3 5 4 -4 7 4 23 17 36 14 14 22 28 19 31 -4 3 1 3 11 -1 24
-9 51 14 36 32 -8 10 -6 12 13 9 21 -4 22 -3 5 9 -16 12 -16 14 -1 20 22 9 26
8 18 -6 -4 -7 -3 -8 4 -4 9 5 9 13 1 28 -8 16 -8 19 1 13 9 -5 10 -1 5 15 -5
15 -4 20 4 16 7 -4 9 -1 5 8 -3 8 0 25 7 38 11 20 10 21 -3 10 -13 -10 -15 -9
-12 10 2 13 6 40 9 62 3 21 8 43 11 47 3 5 -2 6 -12 2 -14 -5 -15 -3 -5 15 14
25 14 43 1 22 -7 -11 -10 -5 -10 23 0 20 -4 37 -10 37 -5 0 -10 5 -10 11 0 7
-8 18 -17 26 -10 8 -12 11 -4 7 10 -5 12 -3 7 5 -5 7 -14 10 -21 7 -9 -3 -11
2 -7 17 5 20 4 21 -13 7 -17 -14 -18 -14 -6 8 6 12 8 22 4 23 -4 0 -19 2 -32
3 -14 2 -34 15 -46 31 -16 20 -25 24 -30 15 -6 -9 -4 -11 5 -5 9 6 11 4 5 -5
-6 -10 -13 -8 -29 11 -29 32 -63 59 -52 40 6 -9 5 -12 -5 -9 -8 3 -20 -2 -27
-11 -10 -13 -12 -13 -10 -1 3 16 -23 21 -34 5 -5 -6 -8 -5 -8 3 0 8 -5 10 -12
6 -9 -5 -8 -2 1 9 8 10 11 20 7 24 -3 3 -6 1 -6 -6 0 -7 -7 -11 -15 -8 -8 4
-17 3 -19 -2 -3 -4 -15 -7 -28 -6 -13 1 -29 -3 -37 -9 -8 -6 -12 -6 -9 -1 3 6
-1 17 -10 25 -14 13 -15 12 -9 -3 3 -9 1 -19 -5 -23 -7 -4 -8 -3 -4 4 4 7 3
12 -3 12 -5 0 -12 -4 -15 -8 -5 -9 -42 -9 -51 -1 -3 3 2 6 10 7 8 1 22 3 30 4
8 1 15 6 15 11 0 5 -8 6 -17 2 -10 -4 -22 -8 -28 -9 -5 -1 -16 -5 -22 -9 -7
-5 -13 -4 -13 0 0 5 6 15 13 23 10 12 9 12 -4 2 -9 -6 -19 -9 -23 -5 -4 4 -4
-1 0 -11 5 -14 4 -17 -5 -12 -6 4 -18 3 -26 -4 -15 -13 -24 -3 -20 23 2 9 -1
15 -6 11 -5 -3 -7 -10 -4 -15 4 -5 -4 -10 -17 -10 -13 -1 -32 -2 -43 -3 -11 0
-26 -5 -34 -10 -10 -7 -12 -6 -6 4 6 10 4 12 -9 7 -10 -4 -15 -3 -11 3 3 6 1
10 -4 10 -6 0 -11 -5 -11 -11 0 -5 -4 -8 -10 -4 -5 3 -7 12 -3 20 3 8 2 15 -1
15 -3 0 -7 -6 -7 -12z m575 -47 c3 -5 -1 -11 -9 -14 -9 -4 -12 -1 -8 9 6 16
10 17 17 5z m-664 -21 c0 -5 -2 -10 -4 -10 -3 0 -8 5 -11 10 -3 6 -1 10 4 10
6 0 11 -4 11 -10z m426 -9 c-3 -4 6 -13 19 -19 20 -9 23 -9 18 3 -3 8 -10 12
-16 8 -6 -3 -7 -1 -3 5 13 21 41 0 38 -29 -1 -3 6 -6 13 -6 11 0 12 4 3 14 -8
11 -7 12 6 7 9 -3 16 -1 16 5 0 6 5 11 12 11 9 0 9 -3 0 -12 -20 -20 -14 -28
18 -24 24 3 30 -1 30 -15 0 -10 5 -21 11 -25 8 -4 9 1 5 17 -3 13 -3 18 0 11
3 -6 9 -10 14 -7 4 3 7 -3 6 -13 -1 -12 5 -16 22 -14 19 3 22 -1 22 -27 0 -17
3 -30 8 -30 4 1 16 1 27 -1 l20 -1 -20 -9 -20 -9 20 0 c15 -1 17 -3 7 -10 -11
-7 -11 -9 1 -14 8 -3 20 -1 26 4 8 6 8 5 1 -3 -5 -7 -10 -22 -10 -35 0 -13 5
-23 10 -23 6 0 10 -5 10 -11 0 -5 -4 -8 -8 -5 -5 3 -9 -1 -9 -9 0 -8 3 -12 6
-10 4 2 12 -8 18 -22 10 -20 10 -23 -2 -13 -9 7 -15 8 -20 0 -3 -5 -2 -10 3
-10 5 0 12 -9 15 -20 3 -10 0 -18 -5 -17 -6 1 -13 -4 -16 -12 -2 -8 0 -11 5
-8 5 3 9 -5 9 -18 0 -13 -4 -21 -10 -18 -5 4 -7 -1 -3 -11 4 -10 3 -15 -3 -11
-6 3 -10 -1 -10 -10 0 -9 -4 -14 -9 -10 -6 3 -8 -4 -6 -15 2 -11 -1 -20 -7
-20 -7 0 -6 -5 2 -14 10 -13 7 -14 -14 -10 -20 3 -24 1 -20 -11 4 -10 0 -15
-11 -15 -10 0 -13 5 -9 12 4 7 3 8 -5 4 -9 -6 -9 -11 0 -22 9 -11 6 -13 -20
-10 -26 3 -29 1 -19 -11 9 -11 8 -13 -3 -11 -8 2 -13 -3 -11 -10 1 -8 -2 -11
-7 -7 -6 3 -7 13 -4 22 6 15 5 16 -9 3 -9 -8 -13 -19 -10 -25 3 -5 -3 -3 -13
5 -10 8 -16 10 -12 4 4 -7 0 -14 -8 -17 -10 -4 -12 -1 -8 11 6 15 3 14 -15 -2
-12 -11 -22 -15 -22 -10 0 5 -5 2 -11 -6 -9 -13 -10 -13 -6 0 2 8 10 14 16 12
6 -1 11 2 11 8 0 11 -13 13 -24 3 -12 -12 -78 -14 -70 -1 4 7 3 8 -5 4 -6 -4
-9 -12 -6 -17 4 -5 1 -9 -4 -9 -6 0 -11 8 -12 18 0 13 -2 12 -9 -5 -5 -13 -15
-23 -22 -22 -10 0 -10 2 0 6 6 2 12 9 12 14 0 6 -9 5 -21 -2 -17 -9 -20 -8
-14 2 6 9 3 11 -8 6 -10 -3 -17 -2 -17 4 0 6 -4 8 -8 5 -4 -2 -14 -1 -22 5 -9
5 -10 9 -3 9 12 0 12 25 -1 37 -4 4 -6 2 -4 -6 1 -7 -4 -16 -12 -18 -12 -4
-12 -3 -2 5 8 5 13 12 13 16 -3 20 0 26 9 21 5 -3 7 0 4 9 -3 8 -13 12 -22 9
-14 -4 -14 -3 -3 5 8 6 11 17 7 27 -5 14 -4 15 7 7 10 -8 13 -6 13 9 0 14 -5
18 -21 13 -14 -4 -16 -3 -7 4 8 5 13 12 13 16 -3 18 0 27 7 22 17 -10 4 48
-13 60 -11 8 -13 14 -6 14 7 0 10 4 6 9 -3 5 0 13 6 17 8 5 9 3 4 -6 -6 -9 -4
-11 4 -5 9 5 10 10 2 18 -15 15 -14 30 1 21 7 -4 8 -3 4 5 -4 6 -12 9 -17 6
-16 -11 -10 7 9 22 13 11 13 14 2 10 -10 -3 -16 2 -16 14 0 11 4 15 11 9 19
-16 10 58 -11 81 -10 12 -13 19 -6 15 9 -5 11 2 7 31 -3 25 -1 33 5 23 7 -12
12 -12 29 4 11 10 18 22 16 27 -3 4 -1 10 4 13 5 4 12 2 16 -4 4 -6 12 -7 18
-3 20 13 41 12 49 0 6 -9 8 -9 8 1 0 6 5 12 11 12 5 0 7 -6 3 -12 -4 -7 2 -5
12 5 20 18 28 22 20 8z m-164 -43 c-7 -7 -12 -8 -12 -2 0 14 12 26 19 19 2 -3
-1 -11 -7 -17z m-17 -108 c-3 -5 -11 -10 -16 -10 -6 0 -7 5 -4 10 3 6 11 10
16 10 6 0 7 -4 4 -10z m-1 -215 c-4 -8 -11 -15 -16 -15 -6 0 -5 6 2 15 7 8 14
15 16 15 2 0 1 -7 -2 -15z m616 -169 c0 -3 -4 -8 -10 -11 -5 -3 -10 -1 -10 4
0 6 5 11 10 11 6 0 10 -2 10 -4z m-458 -130 c10 -7 15 -15 12 -18 -3 -4 0 -9
7 -14 8 -4 10 -3 5 4 -8 14 20 12 43 -2 10 -6 12 -5 7 2 -4 7 -1 12 8 12 9 0
16 -5 16 -11 0 -6 7 -3 16 5 20 21 25 20 17 -1 -6 -16 -5 -17 12 -3 11 9 16
10 11 3 -4 -8 -2 -13 8 -13 8 0 16 5 18 12 3 7 7 5 11 -6 5 -12 3 -15 -6 -10
-6 4 -9 4 -5 -1 4 -4 2 -15 -4 -24 -10 -13 -10 -14 2 -3 17 14 60 16 60 2 0
-5 5 -10 11 -10 5 0 7 5 3 12 -4 7 -3 8 5 4 6 -4 9 -12 5 -17 -3 -6 -3 -17 0
-26 5 -12 9 -13 20 -4 10 9 15 8 19 -3 4 -9 -1 -19 -10 -24 -14 -8 -13 -10 1
-15 10 -4 15 -3 11 3 -3 6 3 10 14 10 12 0 21 -5 21 -11 0 -5 -4 -7 -10 -4 -5
3 -10 -1 -10 -10 0 -9 5 -13 10 -10 6 3 10 1 10 -5 0 -6 5 -8 12 -4 7 4 8 3 4
-5 -4 -6 -13 -9 -19 -5 -7 3 -4 -1 7 -10 12 -10 17 -23 14 -41 -5 -22 -3 -23
10 -13 13 11 14 11 8 0 -4 -7 -2 -20 6 -30 12 -16 11 -16 -6 -2 -18 14 -19 13
-13 -2 4 -11 2 -18 -6 -19 -9 0 -9 -2 1 -6 7 -2 17 -14 24 -26 10 -19 9 -20
-4 -10 -12 10 -15 10 -15 -2 0 -8 5 -15 11 -15 6 0 4 -5 -4 -10 -13 -9 -13
-11 0 -20 10 -6 11 -10 3 -10 -7 0 -13 -9 -13 -21 0 -13 -4 -18 -12 -13 -7 4
-10 4 -6 -1 4 -4 3 -15 -4 -22 -7 -8 -13 -24 -15 -36 -2 -12 -4 -27 -5 -33 -1
-6 -7 -11 -15 -11 -9 0 -10 4 -2 13 7 8 6 14 -2 20 -7 4 -9 3 -5 -4 3 -6 2
-13 -4 -17 -7 -4 -7 -13 1 -26 10 -20 10 -20 -18 -2 -26 16 -27 16 -14 0 12
-15 11 -17 -3 -17 -9 0 -16 -3 -16 -8 0 -4 -10 -12 -22 -17 -13 -6 -22 -17
-20 -24 2 -9 -3 -9 -18 2 -22 15 -60 12 -60 -4 0 -5 -5 -9 -11 -9 -5 0 -8 4
-4 9 3 5 0 13 -6 17 -8 5 -9 3 -4 -6 6 -10 4 -12 -8 -7 -15 5 -33 -17 -28 -36
1 -5 -3 -6 -9 -2 -6 3 -9 9 -6 13 2 4 0 16 -5 27 -6 16 -8 16 -8 3 -1 -12 -9
-15 -31 -14 -16 1 -30 -3 -30 -8 0 -6 -4 -4 -9 4 -6 8 -7 19 -5 25 3 5 -2 1
-10 -9 -12 -15 -16 -16 -17 -5 0 10 -2 10 -6 2 -2 -7 -9 -13 -14 -13 -6 0 -7
5 -4 10 9 14 -8 12 -24 -2 -10 -9 -12 -9 -7 -1 3 6 2 14 -4 18 -5 3 -10 1 -10
-6 0 -17 -11 -5 -15 18 -2 10 -4 18 -5 18 -1 0 -2 16 -3 37 -1 25 1 34 9 27 7
-6 10 -1 10 14 -1 12 -8 27 -16 34 -13 11 -13 13 0 14 8 1 19 1 23 0 5 -1 6 3
2 9 -3 6 -10 8 -14 5 -5 -2 -8 6 -8 20 0 14 4 22 10 18 6 -3 7 -1 3 6 -4 6
-12 9 -17 6 -16 -11 -10 7 9 22 13 11 13 14 2 10 -10 -3 -16 2 -16 14 0 11 4
15 11 9 12 -10 14 55 2 66 -11 11 -8 26 3 19 5 -3 7 0 4 9 -3 8 -13 12 -22 9
-13 -4 -14 -3 -3 5 8 6 11 18 6 31 -4 13 -2 21 5 21 6 0 9 -4 5 -9 -3 -5 -2
-12 2 -14 5 -3 8 10 9 29 0 19 -3 34 -8 34 -4 0 -8 13 -8 28 0 15 -5 33 -12
40 -7 7 -8 12 -4 12 5 0 15 -8 22 -17 12 -17 13 -17 10 0 -1 10 -9 23 -17 28
-11 7 -11 9 4 9 10 0 16 4 12 9 -3 5 -1 12 4 15 5 4 13 1 17 -5 5 -8 3 -9 -6
-4 -9 5 -11 4 -6 -4 4 -6 12 -9 17 -5 5 3 7 9 4 14 -3 5 -1 11 5 15 9 6 15 -8
11 -29 -1 -5 5 -4 13 4 13 10 19 10 34 -1 15 -13 16 -12 3 4 -13 16 -2 25 13
10 10 -11 36 -12 36 -3 0 5 -8 14 -17 19 -10 6 -13 10 -8 10 6 0 18 -6 27 -13z
m78 0 c0 -3 -4 -8 -10 -11 -5 -3 -10 -1 -10 4 0 6 5 11 10 11 6 0 10 -2 10 -4z
m390 -67 c0 -6 -7 -3 -16 5 -8 9 -20 13 -26 10 -7 -4 -8 -2 -4 4 8 14 46 -2
46 -19z m-625 -89 c-3 -5 -12 -10 -18 -10 -7 0 -6 4 3 10 19 12 23 12 15 0z
m0 -130 c-3 -5 -11 -10 -16 -10 -6 0 -7 5 -4 10 3 6 11 10 16 10 6 0 7 -4 4
-10z m525 -175 c0 -2 -10 -9 -22 -15 -22 -11 -22 -10 -4 4 21 17 26 19 26 11z
m-530 -25 c0 -5 -2 -10 -4 -10 -3 0 -8 5 -11 10 -3 6 -1 10 4 10 6 0 11 -4 11
-10z m320 -140 c0 -5 -5 -10 -11 -10 -5 0 -7 5 -4 10 3 6 8 10 11 10 2 0 4 -4
4 -10z m-85 -69 c3 -5 2 -12 -3 -15 -5 -3 -9 1 -9 9 0 17 3 19 12 6z m-215
-10 c0 -4 -11 -7 -24 -7 -14 0 -23 3 -21 6 5 9 45 10 45 1z m100 5 c0 -3 -4
-8 -10 -11 -5 -3 -10 -1 -10 4 0 6 5 11 10 11 6 0 10 -2 10 -4z"/>
<path d="M3046 1387 c3 -10 9 -15 12 -12 3 3 0 11 -7 18 -10 9 -11 8 -5 -6z"/>
<path d="M3075 1391 c-3 -5 -2 -12 3 -15 5 -3 9 1 9 9 0 17 -3 19 -12 6z"/>
<path d="M3385 1309 c-4 -6 -5 -12 -2 -15 2 -3 7 2 10 11 7 17 1 20 -8 4z"/>
<path d="M3410 921 c0 -6 4 -13 10 -16 6 -3 7 1 4 9 -7 18 -14 21 -14 7z"/>
<path d="M2996 182 c-3 -5 1 -9 9 -9 8 0 12 4 9 9 -3 4 -7 8 -9 8 -2 0 -6 -4
-9 -8z"/>
<path d="M3339 168 c-5 -18 -6 -38 -1 -34 7 8 12 36 6 36 -2 0 -4 -1 -5 -2z"/>
<path d="M3005 150 c-3 -6 1 -7 9 -4 18 7 21 14 7 14 -6 0 -13 -4 -16 -10z"/>
<path d="M2910 1496 c0 -2 7 -9 15 -16 13 -11 14 -10 9 4 -5 14 -24 23 -24 12z"/>
<path d="M336 1474 c-3 -9 -4 -19 -1 -22 3 -3 5 0 5 7 0 7 4 10 10 6 5 -3 7
-12 3 -20 -6 -18 13 -20 23 -3 5 7 3 8 -6 3 -9 -5 -11 -4 -6 4 4 6 12 8 18 5
6 -4 8 -3 5 3 -3 5 0 10 8 10 9 0 11 -4 6 -11 -5 -6 -9 -15 -9 -19 0 -5 -4
-12 -8 -15 -4 -4 -4 0 1 8 6 12 5 13 -5 3 -21 -20 -4 -27 22 -9 12 9 19 16 14
16 -5 0 -3 7 4 15 9 11 9 15 1 15 -7 0 -9 5 -5 13 5 7 0 6 -11 -3 -21 -17 -24
-17 -36 2 -7 10 -9 10 -9 -2 0 -12 -2 -12 -9 -2 -6 11 -10 10 -15 -4z"/>
<path d="M619 1473 c-12 -16 -12 -17 2 -6 9 7 19 10 22 6 4 -3 7 -1 7 5 0 17
-16 15 -31 -5z"/>
<path d="M1339 1473 c-12 -16 -12 -17 2 -6 9 7 19 10 22 6 4 -3 7 -1 7 5 0 17
-16 15 -31 -5z"/>
<path d="M1555 1480 c3 -5 8 -10 11 -10 2 0 4 5 4 10 0 6 -5 10 -11 10 -5 0
-7 -4 -4 -10z"/>
<path d="M1904 1482 c3 -5 0 -12 -6 -15 -7 -2 -10 -7 -7 -11 3 -4 12 0 18 8 9
11 9 16 0 22 -7 4 -9 3 -5 -4z"/>
<path d="M2680 1477 c-8 -7 -22 -21 -30 -32 -14 -19 -14 -19 6 -3 12 11 30 16
46 13 15 -3 30 -1 33 5 3 5 -3 10 -14 10 -10 0 -21 4 -23 9 -2 5 -10 4 -18 -2z"/>
<path d="M3019 1473 c-13 -16 -12 -17 4 -4 16 13 21 21 13 21 -2 0 -10 -8 -17
-17z"/>
<path d="M3206 1482 c-3 -5 1 -9 9 -9 8 0 15 4 15 9 0 4 -4 8 -9 8 -6 0 -12
-4 -15 -8z"/>
<path d="M4273 1483 c4 -3 1 -13 -6 -22 -11 -14 -10 -14 5 -2 16 12 16 31 1
31 -4 0 -3 -3 0 -7z"/>
<path d="M1854 1452 c3 -6 -2 -15 -11 -21 -10 -6 -13 -11 -7 -11 20 0 37 27
23 36 -7 4 -9 3 -5 -4z"/>
<path d="M4613 1405 c0 -8 4 -12 9 -9 5 3 6 10 3 15 -9 13 -12 11 -12 -6z"/>
<path d="M451 1394 c0 -11 3 -14 6 -6 3 7 2 16 -1 19 -3 4 -6 -2 -5 -13z"/>
<path d="M3510 1396 c0 -2 7 -7 16 -10 8 -3 12 -2 9 4 -6 10 -25 14 -25 6z"/>
<path d="M4351 1378 c5 -10 13 -18 16 -18 3 0 3 3 0 7 -4 3 -3 11 3 17 6 8 3
12 -10 12 -15 0 -16 -4 -9 -18z"/>
<path d="M2230 1371 c0 -5 7 -12 16 -15 14 -5 15 -4 4 9 -14 17 -20 19 -20 6z"/>
<path d="M479 1351 c8 -5 10 -14 6 -22 -6 -11 -5 -11 5 -2 14 12 6 33 -13 33
-8 0 -7 -3 2 -9z"/>
<path d="M4743 1326 c0 -15 22 -15 34 0 4 5 4 6 -1 2 -5 -4 -14 -3 -21 2 -8 7
-12 5 -12 -4z"/>
<path d="M4006 1213 c-6 -14 -5 -15 5 -6 7 7 10 15 7 18 -3 3 -9 -2 -12 -12z"/>
<path d="M670 1199 c0 -5 5 -7 10 -4 6 3 10 8 10 11 0 2 -4 4 -10 4 -5 0 -10
-5 -10 -11z"/>
<path d="M1875 1161 c-3 -5 -2 -12 3 -15 5 -3 9 1 9 9 0 17 -3 19 -12 6z"/>
<path d="M478 1133 c7 -3 16 -2 19 1 4 3 -2 6 -13 5 -11 0 -14 -3 -6 -6z"/>
<path d="M3667 1077 c-3 -8 1 -14 8 -14 7 0 11 6 8 14 -3 7 -6 13 -8 13 -2 0
-5 -6 -8 -13z"/>
<path d="M4125 1011 c-3 -5 -2 -12 3 -15 5 -3 9 1 9 9 0 17 -3 19 -12 6z"/>
<path d="M675 861 c-3 -5 -2 -12 3 -15 5 -3 9 1 9 9 0 17 -3 19 -12 6z"/>
<path d="M3556 824 c-14 -14 -14 -34 0 -34 3 0 3 4 -1 9 -3 5 5 17 17 25 12 9
17 16 11 16 -6 0 -19 -7 -27 -16z"/>
<path d="M2240 826 c0 -2 7 -9 15 -16 9 -7 15 -8 15 -2 0 5 -7 12 -15 16 -8 3
-15 4 -15 2z"/>
<path d="M905 720 c-3 -6 1 -7 9 -4 18 7 21 14 7 14 -6 0 -13 -4 -16 -10z"/>
<path d="M4115 521 c-6 -11 13 -26 22 -17 4 3 1 6 -6 6 -7 0 -9 5 -6 10 3 6 4
10 1 10 -3 0 -7 -4 -11 -9z"/>
<path d="M2287 480 c10 -11 19 -20 21 -20 1 0 -2 9 -8 20 -6 11 -15 20 -20 20
-6 0 -2 -9 7 -20z"/>
<path d="M2796 413 c-6 -14 -5 -15 5 -6 7 7 10 15 7 18 -3 3 -9 -2 -12 -12z"/>
<path d="M4913 353 c0 -21 15 -43 29 -43 6 0 8 7 5 15 -4 8 -1 17 5 21 6 4 8
3 4 -4 -3 -6 -2 -13 3 -16 11 -7 9 13 -2 32 -12 18 -44 15 -44 -5z"/>
<path d="M2801 267 c-13 -21 -12 -21 5 -5 10 10 16 20 13 22 -3 3 -11 -5 -18
-17z"/>
<path d="M474 168 l-19 -23 23 19 c21 18 27 26 19 26 -2 0 -12 -10 -23 -22z"/>
<path d="M1419 175 c-8 -30 4 -55 25 -55 6 0 3 5 -6 10 -10 6 -15 19 -13 30 3
17 -2 30 -6 15z"/>
<path d="M4360 145 c0 -2 10 -10 23 -16 20 -11 21 -11 8 4 -13 16 -31 23 -31
12z"/>
<path d="M710 116 c0 -2 7 -9 15 -16 13 -11 14 -10 9 4 -5 14 -24 23 -24 12z"/>
<path d="M2035 100 c3 -5 8 -10 11 -10 2 0 4 5 4 10 0 6 -5 10 -11 10 -5 0 -7
-4 -4 -10z"/>
<path d="M1056 81 c-4 -5 -1 -13 5 -16 5 -4 8 -14 5 -24 -4 -9 2 -7 14 8 11
13 20 28 19 35 0 7 -3 6 -6 -2 -4 -9 -8 -10 -18 -2 -8 7 -15 7 -19 1z"/>
<path d="M2680 80 c0 -5 -8 -7 -17 -4 -10 3 -7 -2 7 -10 l25 -16 -30 4 c-16 2
-22 1 -12 -1 9 -2 17 -8 17 -13 0 -5 7 -6 17 -3 11 4 14 3 9 -5 -4 -7 -2 -12
4 -12 8 0 9 7 5 18 -4 9 -7 25 -7 35 0 9 -3 17 -9 17 -5 0 -9 -4 -9 -10z"/>
<path d="M1513 15 c0 -8 4 -12 9 -9 4 3 8 9 8 15 0 5 -4 9 -8 9 -5 0 -9 -7 -9
-15z"/>
<path d="M2750 20 c0 -5 5 -10 11 -10 5 0 7 5 4 10 -3 6 -8 10 -11 10 -2 0 -4
-4 -4 -10z"/>
</g>
</svg>
